<?xml version="1.0" encoding="UTF-8"?>
<svg version="1.1" xmlns="http://www.w3.org/2000/svg" width="258" height="258">
<path d="M0 0 C85.14 0 170.28 0 258 0 C258 85.14 258 170.28 258 258 C172.86 258 87.72 258 0 258 C0 172.86 0 87.72 0 0 Z " fill="#FEFEFE" transform="translate(0,0)"/>
<path d="M0 0 C1.98 0 3.96 0 6 0 C6 1.98 6 3.96 6 6 C7.98 6 9.96 6 12 6 C12 9.96 12 13.92 12 18 C13.98 18 15.96 18 18 18 C18 16.02 18 14.04 18 12 C19.98 12 21.96 12 24 12 C24 13.98 24 15.96 24 18 C25.98 18 27.96 18 30 18 C30 12.06 30 6.12 30 0 C33.96 0 37.92 0 42 0 C42 3.96 42 7.92 42 12 C40.02 12 38.04 12 36 12 C36 13.98 36 15.96 36 18 C39.96 18 43.92 18 48 18 C48 16.02 48 14.04 48 12 C49.98 12 51.96 12 54 12 C54 13.98 54 15.96 54 18 C55.98 18 57.96 18 60 18 C60 21.96 60 25.92 60 30 C61.98 30 63.96 30 66 30 C66 31.98 66 33.96 66 36 C67.98 36 69.96 36 72 36 C72 39.96 72 43.92 72 48 C73.98 48 75.96 48 78 48 C78 51.96 78 55.92 78 60 C79.98 60 81.96 60 84 60 C84 54.06 84 48.12 84 42 C85.98 42 87.96 42 90 42 C90 45.96 90 49.92 90 54 C91.98 54 93.96 54 96 54 C96 55.98 96 57.96 96 60 C97.98 60 99.96 60 102 60 C102 61.98 102 63.96 102 66 C103.98 66 105.96 66 108 66 C108 64.02 108 62.04 108 60 C109.98 60 111.96 60 114 60 C114 63.96 114 67.92 114 72 C115.98 72 117.96 72 120 72 C120 70.02 120 68.04 120 66 C121.98 66 123.96 66 126 66 C126 64.02 126 62.04 126 60 C127.98 60 129.96 60 132 60 C132 61.98 132 63.96 132 66 C133.98 66 135.96 66 138 66 C138 60.06 138 54.12 138 48 C139.98 48 141.96 48 144 48 C144 49.98 144 51.96 144 54 C147.96 54 151.92 54 156 54 C156 55.98 156 57.96 156 60 C152.04 60 148.08 60 144 60 C144 63.96 144 67.92 144 72 C140.04 72 136.08 72 132 72 C132 75.96 132 79.92 132 84 C133.98 84 135.96 84 138 84 C138 82.02 138 80.04 138 78 C141.96 78 145.92 78 150 78 C150 79.98 150 81.96 150 84 C148.02 84 146.04 84 144 84 C144 89.94 144 95.88 144 102 C140.04 102 136.08 102 132 102 C132 105.96 132 109.92 132 114 C133.98 114 135.96 114 138 114 C138 112.02 138 110.04 138 108 C139.98 108 141.96 108 144 108 C144 109.98 144 111.96 144 114 C147.96 114 151.92 114 156 114 C156 115.98 156 117.96 156 120 C154.02 120 152.04 120 150 120 C150 125.94 150 131.88 150 138 C151.98 138 153.96 138 156 138 C156 143.94 156 149.88 156 156 C154.02 156 152.04 156 150 156 C150 154.02 150 152.04 150 150 C148.02 150 146.04 150 144 150 C144 151.98 144 153.96 144 156 C142.02 156 140.04 156 138 156 C138 157.98 138 159.96 138 162 C136.02 162 134.04 162 132 162 C132 160.02 132 158.04 132 156 C130.02 156 128.04 156 126 156 C126 157.98 126 159.96 126 162 C124.02 162 122.04 162 120 162 C120 163.98 120 165.96 120 168 C123.96 168 127.92 168 132 168 C132 169.98 132 171.96 132 174 C133.98 174 135.96 174 138 174 C138 175.98 138 177.96 138 180 C139.98 180 141.96 180 144 180 C144 181.98 144 183.96 144 186 C147.96 186 151.92 186 156 186 C156 187.98 156 189.96 156 192 C154.02 192 152.04 192 150 192 C150 193.98 150 195.96 150 198 C148.02 198 146.04 198 144 198 C144 199.98 144 201.96 144 204 C145.98 204 147.96 204 150 204 C150 207.96 150 211.92 150 216 C151.98 216 153.96 216 156 216 C156 217.98 156 219.96 156 222 C150.06 222 144.12 222 138 222 C138 218.04 138 214.08 138 210 C136.02 210 134.04 210 132 210 C132 213.96 132 217.92 132 222 C124.08 222 116.16 222 108 222 C108 220.02 108 218.04 108 216 C109.98 216 111.96 216 114 216 C114 214.02 114 212.04 114 210 C110.04 210 106.08 210 102 210 C102 208.02 102 206.04 102 204 C105.96 204 109.92 204 114 204 C114 202.02 114 200.04 114 198 C110.04 198 106.08 198 102 198 C102 192.06 102 186.12 102 180 C100.02 180 98.04 180 96 180 C96 183.96 96 187.92 96 192 C94.02 192 92.04 192 90 192 C90 186.06 90 180.12 90 174 C91.98 174 93.96 174 96 174 C96 172.02 96 170.04 96 168 C99.96 168 103.92 168 108 168 C108 166.02 108 164.04 108 162 C106.02 162 104.04 162 102 162 C102 158.04 102 154.08 102 150 C98.04 150 94.08 150 90 150 C90 151.98 90 153.96 90 156 C86.04 156 82.08 156 78 156 C78 159.96 78 163.92 78 168 C76.02 168 74.04 168 72 168 C72 169.98 72 171.96 72 174 C73.98 174 75.96 174 78 174 C78 175.98 78 177.96 78 180 C79.98 180 81.96 180 84 180 C84 181.98 84 183.96 84 186 C82.02 186 80.04 186 78 186 C78 187.98 78 189.96 78 192 C79.98 192 81.96 192 84 192 C84 193.98 84 195.96 84 198 C78.06 198 72.12 198 66 198 C66 199.98 66 201.96 66 204 C67.98 204 69.96 204 72 204 C72 207.96 72 211.92 72 216 C73.98 216 75.96 216 78 216 C78 214.02 78 212.04 78 210 C79.98 210 81.96 210 84 210 C84 213.96 84 217.92 84 222 C78.06 222 72.12 222 66 222 C66 220.02 66 218.04 66 216 C64.02 216 62.04 216 60 216 C60 217.98 60 219.96 60 222 C54.06 222 48.12 222 42 222 C42 220.02 42 218.04 42 216 C40.02 216 38.04 216 36 216 C36 217.98 36 219.96 36 222 C22.14 222 8.28 222 -6 222 C-6 218.04 -6 214.08 -6 210 C-4.02 210 -2.04 210 0 210 C0 211.98 0 213.96 0 216 C1.98 216 3.96 216 6 216 C6 214.02 6 212.04 6 210 C7.98 210 9.96 210 12 210 C12 211.98 12 213.96 12 216 C13.98 216 15.96 216 18 216 C18 210.06 18 204.12 18 198 C21.96 198 25.92 198 30 198 C30 196.02 30 194.04 30 192 C24.06 192 18.12 192 12 192 C12 195.96 12 199.92 12 204 C6.06 204 0.12 204 -6 204 C-6 202.02 -6 200.04 -6 198 C-9.96 198 -13.92 198 -18 198 C-18 196.02 -18 194.04 -18 192 C-16.02 192 -14.04 192 -12 192 C-12 188.04 -12 184.08 -12 180 C-13.98 180 -15.96 180 -18 180 C-18 178.02 -18 176.04 -18 174 C-23.94 174 -29.88 174 -36 174 C-36 172.02 -36 170.04 -36 168 C-30.06 168 -24.12 168 -18 168 C-18 166.02 -18 164.04 -18 162 C-16.02 162 -14.04 162 -12 162 C-12 160.02 -12 158.04 -12 156 C-10.02 156 -8.04 156 -6 156 C-6 152.04 -6 148.08 -6 144 C-9.96 144 -13.92 144 -18 144 C-18 142.02 -18 140.04 -18 138 C-21.96 138 -25.92 138 -30 138 C-30 139.98 -30 141.96 -30 144 C-28.02 144 -26.04 144 -24 144 C-24 145.98 -24 147.96 -24 150 C-29.94 150 -35.88 150 -42 150 C-42 146.04 -42 142.08 -42 138 C-43.98 138 -45.96 138 -48 138 C-48 136.02 -48 134.04 -48 132 C-38.1 132 -28.2 132 -18 132 C-18 130.02 -18 128.04 -18 126 C-21.96 126 -25.92 126 -30 126 C-30 124.02 -30 122.04 -30 120 C-31.98 120 -33.96 120 -36 120 C-36 121.98 -36 123.96 -36 126 C-37.98 126 -39.96 126 -42 126 C-42 124.02 -42 122.04 -42 120 C-43.98 120 -45.96 120 -48 120 C-48 121.98 -48 123.96 -48 126 C-49.98 126 -51.96 126 -54 126 C-54 122.04 -54 118.08 -54 114 C-55.98 114 -57.96 114 -60 114 C-60 115.98 -60 117.96 -60 120 C-61.98 120 -63.96 120 -66 120 C-66 110.1 -66 100.2 -66 90 C-64.02 90 -62.04 90 -60 90 C-60 91.98 -60 93.96 -60 96 C-56.04 96 -52.08 96 -48 96 C-48 92.04 -48 88.08 -48 84 C-46.02 84 -44.04 84 -42 84 C-42 82.02 -42 80.04 -42 78 C-43.98 78 -45.96 78 -48 78 C-48 76.02 -48 74.04 -48 72 C-44.04 72 -40.08 72 -36 72 C-36 68.04 -36 64.08 -36 60 C-30.06 60 -24.12 60 -18 60 C-18 56.04 -18 52.08 -18 48 C-16.02 48 -14.04 48 -12 48 C-12 46.02 -12 44.04 -12 42 C-13.98 42 -15.96 42 -18 42 C-18 36.06 -18 30.12 -18 24 C-16.02 24 -14.04 24 -12 24 C-12 22.02 -12 20.04 -12 18 C-8.04 18 -4.08 18 0 18 C0 16.02 0 14.04 0 12 C-1.98 12 -3.96 12 -6 12 C-6 10.02 -6 8.04 -6 6 C-4.02 6 -2.04 6 0 6 C0 4.02 0 2.04 0 0 Z " fill="#010101" transform="translate(84,18)"/>
<path d="M0 0 C1.98 0 3.96 0 6 0 C6 1.98 6 3.96 6 6 C9.96 6 13.92 6 18 6 C18 11.94 18 17.88 18 24 C19.98 24 21.96 24 24 24 C24 22.02 24 20.04 24 18 C29.94 18 35.88 18 42 18 C42 19.98 42 21.96 42 24 C43.98 24 45.96 24 48 24 C48 22.02 48 20.04 48 18 C51.96 18 55.92 18 60 18 C60 19.98 60 21.96 60 24 C58.02 24 56.04 24 54 24 C54 25.98 54 27.96 54 30 C59.94 30 65.88 30 72 30 C72 31.98 72 33.96 72 36 C73.98 36 75.96 36 78 36 C78 37.98 78 39.96 78 42 C79.32 42 80.64 42 82 42 C82.28875 42.78375 82.5775 43.5675 82.875 44.375 C83.84912254 47.09671632 83.84912254 47.09671632 86 49 C88.20899798 49.2990447 88.20899798 49.2990447 90.78515625 49.24291992 C91.7795874 49.24599655 92.77401855 49.24907318 93.79858398 49.25224304 C94.87567627 49.24505753 95.95276855 49.23787201 97.0625 49.23046875 C98.164729 49.23001053 99.26695801 49.22955231 100.40258789 49.2290802 C102.73617629 49.22605522 105.06976263 49.21816166 107.40332031 49.20581055 C110.98509842 49.18757586 114.56661787 49.18530067 118.1484375 49.18554688 C120.41146058 49.180631 122.6744819 49.17480238 124.9375 49.16796875 C126.01459229 49.16685593 127.09168457 49.1657431 128.20141602 49.16459656 C129.19584717 49.15821671 130.19027832 49.15183685 131.21484375 49.14526367 C132.53150024 49.13954597 132.53150024 49.13954597 133.87475586 49.13371277 C136.05450344 49.13531826 136.05450344 49.13531826 138 48 C138 51.96 138 55.92 138 60 C139.98 60 141.96 60 144 60 C144 56.04 144 52.08 144 48 C145.98 48 147.96 48 150 48 C150 49.98 150 51.96 150 54 C151.98 54 153.96 54 156 54 C156 52.02 156 50.04 156 48 C157.98 48 159.96 48 162 48 C162 49.98 162 51.96 162 54 C163.98 54 165.96 54 168 54 C168 55.98 168 57.96 168 60 C164.04 60 160.08 60 156 60 C156 61.98 156 63.96 156 66 C152.04 66 148.08 66 144 66 C144 69.96 144 73.92 144 78 C142.02 78 140.04 78 138 78 C138 79.98 138 81.96 138 84 C139.98 84 141.96 84 144 84 C144 85.98 144 87.96 144 90 C145.98 90 147.96 90 150 90 C150 91.98 150 93.96 150 96 C148.02 96 146.04 96 144 96 C144 97.98 144 99.96 144 102 C145.98 102 147.96 102 150 102 C150 103.98 150 105.96 150 108 C144.06 108 138.12 108 132 108 C132 109.98 132 111.96 132 114 C133.98 114 135.96 114 138 114 C138 117.96 138 121.92 138 126 C139.98 126 141.96 126 144 126 C144 124.02 144 122.04 144 120 C145.98 120 147.96 120 150 120 C150 123.96 150 127.92 150 132 C144.06 132 138.12 132 132 132 C132 130.02 132 128.04 132 126 C130.02 126 128.04 126 126 126 C126 127.98 126 129.96 126 132 C120.06 132 114.12 132 108 132 C108 130.02 108 128.04 108 126 C106.02 126 104.04 126 102 126 C102 127.98 102 129.96 102 132 C88.14 132 74.28 132 60 132 C60 128.04 60 124.08 60 120 C61.98 120 63.96 120 66 120 C66 121.98 66 123.96 66 126 C67.98 126 69.96 126 72 126 C72 124.02 72 122.04 72 120 C73.98 120 75.96 120 78 120 C78 121.98 78 123.96 78 126 C79.98 126 81.96 126 84 126 C84 120.06 84 114.12 84 108 C87.96 108 91.92 108 96 108 C96 106.02 96 104.04 96 102 C90.06 102 84.12 102 78 102 C78 105.96 78 109.92 78 114 C72.06 114 66.12 114 60 114 C60 112.02 60 110.04 60 108 C56.04 108 52.08 108 48 108 C48 106.02 48 104.04 48 102 C49.98 102 51.96 102 54 102 C54 98.04 54 94.08 54 90 C52.02 90 50.04 90 48 90 C48 88.02 48 86.04 48 84 C42.06 84 36.12 84 30 84 C30 82.02 30 80.04 30 78 C35.94 78 41.88 78 48 78 C48 76.02 48 74.04 48 72 C49.98 72 51.96 72 54 72 C54 70.02 54 68.04 54 66 C55.98 66 57.96 66 60 66 C60 62.04 60 58.08 60 54 C56.04 54 52.08 54 48 54 C48 52.02 48 50.04 48 48 C44.04 48 40.08 48 36 48 C36 49.98 36 51.96 36 54 C37.98 54 39.96 54 42 54 C42 55.98 42 57.96 42 60 C36.06 60 30.12 60 24 60 C24 56.04 24 52.08 24 48 C22.02 48 20.04 48 18 48 C18 46.02 18 44.04 18 42 C27.9 42 37.8 42 48 42 C48 40.02 48 38.04 48 36 C44.04 36 40.08 36 36 36 C36 34.02 36 32.04 36 30 C34.02 30 32.04 30 30 30 C30 31.98 30 33.96 30 36 C28.02 36 26.04 36 24 36 C24 34.02 24 32.04 24 30 C22.02 30 20.04 30 18 30 C18 31.98 18 33.96 18 36 C16.02 36 14.04 36 12 36 C12 32.04 12 28.08 12 24 C10.02 24 8.04 24 6 24 C6 25.98 6 27.96 6 30 C4.02 30 2.04 30 0 30 C0 20.1 0 10.2 0 0 Z " fill="#000000" transform="translate(18,108)"/>
<path d="M0 0 C1.98 0 3.96 0 6 0 C6 5.94 6 11.88 6 18 C9.96 18 13.92 18 18 18 C18 19.98 18 21.96 18 24 C19.32 24 20.64 24 22 24 C22.103125 23.236875 22.20625 22.47375 22.3125 21.6875 C23.05539884 18.78344089 23.56993983 17.71004234 26 16 C27.32 16 28.64 16 30 16 C30 14.68 30 13.36 30 12 C26.04 12 22.08 12 18 12 C18 8.04 18 4.08 18 0 C19.98 0 21.96 0 24 0 C24 1.98 24 3.96 24 6 C25.98 6 27.96 6 30 6 C30 4.02 30 2.04 30 0 C31.98 0 33.96 0 36 0 C36 5.28 36 10.56 36 16 C41.94 16 47.88 16 54 16 C54 14.68 54 13.36 54 12 C55.98 12 57.96 12 60 12 C60 13.32 60 14.64 60 16 C61.98 16 63.96 16 66 16 C66 14.68 66 13.36 66 12 C67.98 12 69.96 12 72 12 C72 13.32 72 14.64 72 16 C72.763125 16.103125 73.52625 16.20625 74.3125 16.3125 C77.38605293 17.09875773 78.22494027 17.39933109 80 20 C80.21714241 22.81127043 80.28284276 25.3883345 80.1875 28.1875 C80.16719727 29.31188477 80.16719727 29.31188477 80.14648438 30.45898438 C80.11118539 32.30629767 80.05737917 34.15324066 80 36 C81.32 36 82.64 36 84 36 C84 37.98 84 39.96 84 42 C82.68 42 81.36 42 80 42 C80 45.96 80 49.92 80 54 C81.32 54 82.64 54 84 54 C84 52.02 84 50.04 84 48 C85.98 48 87.96 48 90 48 C90 46.02 90 44.04 90 42 C91.98 42 93.96 42 96 42 C96 43.98 96 45.96 96 48 C99.96 48 103.92 48 108 48 C108 46.02 108 44.04 108 42 C109.98 42 111.96 42 114 42 C114 40.02 114 38.04 114 36 C119.94 36 125.88 36 132 36 C132 34.02 132 32.04 132 30 C130.02 30 128.04 30 126 30 C126 28.02 126 26.04 126 24 C131.94 24 137.88 24 144 24 C144 25.98 144 27.96 144 30 C142.02 30 140.04 30 138 30 C138 35.94 138 41.88 138 48 C139.98 48 141.96 48 144 48 C144 46.02 144 44.04 144 42 C145.98 42 147.96 42 150 42 C150 43.98 150 45.96 150 48 C153.96 48 157.92 48 162 48 C162 49.98 162 51.96 162 54 C160.02 54 158.04 54 156 54 C156 59.94 156 65.88 156 72 C157.98 72 159.96 72 162 72 C162 77.94 162 83.88 162 90 C160.02 90 158.04 90 156 90 C156 88.02 156 86.04 156 84 C154.02 84 152.04 84 150 84 C150 85.98 150 87.96 150 90 C148.02 90 146.04 90 144 90 C144 91.98 144 93.96 144 96 C142.02 96 140.04 96 138 96 C138 94.02 138 92.04 138 90 C136.02 90 134.04 90 132 90 C132 91.98 132 93.96 132 96 C130.02 96 128.04 96 126 96 C126 97.98 126 99.96 126 102 C129.96 102 133.92 102 138 102 C138 103.98 138 105.96 138 108 C139.98 108 141.96 108 144 108 C144 109.98 144 111.96 144 114 C145.98 114 147.96 114 150 114 C150 115.98 150 117.96 150 120 C153.96 120 157.92 120 162 120 C162 121.98 162 123.96 162 126 C160.02 126 158.04 126 156 126 C156 127.98 156 129.96 156 132 C154.02 132 152.04 132 150 132 C150 133.98 150 135.96 150 138 C151.98 138 153.96 138 156 138 C156 141.96 156 145.92 156 150 C157.98 150 159.96 150 162 150 C162 151.98 162 153.96 162 156 C156.06 156 150.12 156 144 156 C144 152.04 144 148.08 144 144 C142.02 144 140.04 144 138 144 C138 147.96 138 151.92 138 156 C130.08 156 122.16 156 114 156 C114 154.02 114 152.04 114 150 C115.98 150 117.96 150 120 150 C120 148.02 120 146.04 120 144 C116.04 144 112.08 144 108 144 C108 142.02 108 140.04 108 138 C111.96 138 115.92 138 120 138 C120 136.02 120 134.04 120 132 C116.04 132 112.08 132 108 132 C108 126.06 108 120.12 108 114 C106.02 114 104.04 114 102 114 C102 117.96 102 121.92 102 126 C100.02 126 98.04 126 96 126 C96 120.06 96 114.12 96 108 C97.98 108 99.96 108 102 108 C102 106.02 102 104.04 102 102 C105.96 102 109.92 102 114 102 C114 100.02 114 98.04 114 96 C112.02 96 110.04 96 108 96 C108 90.06 108 84.12 108 78 C106.02 78 104.04 78 102 78 C102 76.02 102 74.04 102 72 C100.02 72 98.04 72 96 72 C96 73.98 96 75.96 96 78 C94.02 78 92.04 78 90 78 C90 76.02 90 74.04 90 72 C88.02 72 86.04 72 84 72 C84 75.96 84 79.92 84 84 C82.02 84 80.04 84 78 84 C77.67 80.37 77.34 76.74 77 73 C76.67 73.33 76.34 73.66 76 74 C74.45645307 74.11406568 72.90776507 74.15956926 71.36010742 74.17700195 C70.37205612 74.18983719 69.38400482 74.20267242 68.36601257 74.21589661 C67.29003311 74.22328354 66.21405365 74.23067047 65.10546875 74.23828125 C63.45711784 74.25038887 63.45711784 74.25038887 61.77546692 74.26274109 C59.44432157 74.27660139 57.11315576 74.28731479 54.78198242 74.29516602 C51.21298819 74.31237709 47.64492029 74.35624675 44.07617188 74.40039062 C41.815111 74.41051707 39.55404223 74.41903332 37.29296875 74.42578125 C36.22306198 74.44328934 35.15315521 74.46079742 34.05082703 74.47883606 C26.69642499 74.4572665 26.69642499 74.4572665 23.29418945 72.22338867 C22 70 22 70 22 66 C20.68 66 19.36 66 18 66 C18 64.02 18 62.04 18 60 C19.32 60 20.64 60 22 60 C22 56.7 22 53.4 22 50 C22.99 49.505 22.99 49.505 24 49 C24.03738281 50.26457031 24.07476562 51.52914062 24.11328125 52.83203125 C24.17893833 54.4922173 24.24538576 56.15237222 24.3125 57.8125 C24.33505859 58.64587891 24.35761719 59.47925781 24.38085938 60.33789062 C24.4340332 61.54155273 24.4340332 61.54155273 24.48828125 62.76953125 C24.51446533 63.50792236 24.54064941 64.24631348 24.56762695 65.00708008 C25.12623141 67.58183342 25.94157306 68.37535207 28 70 C30.2358622 70.43333916 30.2358622 70.43333916 32.74682617 70.34057617 C33.70759567 70.34034958 34.66836517 70.34012299 35.6582489 70.33988953 C36.69270645 70.32440567 37.727164 70.30892181 38.79296875 70.29296875 C39.85413406 70.28872391 40.91529938 70.28447906 42.00862122 70.28010559 C45.40183765 70.26329706 48.79446272 70.22564019 52.1875 70.1875 C54.48631956 70.172456 56.78514841 70.15876711 59.08398438 70.14648438 C64.72285842 70.11338645 70.36138697 70.0631653 76 70 C76.02529479 63.20069165 76.04284349 56.40139537 76.05493164 49.60205078 C76.05996943 47.28759304 76.06679981 44.9731385 76.07543945 42.65869141 C76.08752924 39.3375571 76.09323375 36.01646475 76.09765625 32.6953125 C76.10281754 31.65569366 76.10797882 30.61607483 76.11329651 29.54495239 C76.11340981 28.10368484 76.11340981 28.10368484 76.11352539 26.63330078 C76.115746 25.78502716 76.11796661 24.93675354 76.12025452 24.06277466 C76.13232184 21.93597607 76.13232184 21.93597607 75 20 C68.20075608 19.92411635 61.40162078 19.87147074 54.60205078 19.83520508 C52.28755615 19.82009147 49.97309026 19.79960004 47.65869141 19.77368164 C44.33749304 19.73741159 41.01667232 19.72029956 37.6953125 19.70703125 C36.65569366 19.69154739 35.61607483 19.67606354 34.54495239 19.66011047 C33.58410736 19.65988388 32.62326233 19.65965729 31.63330078 19.65942383 C30.78502716 19.65276199 29.93675354 19.64610016 29.06277466 19.63923645 C28.0417012 19.81781441 28.0417012 19.81781441 27 20 C24.81005752 23.28491373 24.64722661 24.83095639 24.375 28.6875 C24.30023438 29.68136719 24.22546875 30.67523438 24.1484375 31.69921875 C24.09945312 32.45847656 24.05046875 33.21773437 24 34 C23.34 34 22.68 34 22 34 C22 32.68 22 31.36 22 30 C16.72 30 11.44 30 6 30 C6 28.02 6 26.04 6 24 C4.02 24 2.04 24 0 24 C0 22.02 0 20.04 0 18 C-1.98 18 -3.96 18 -6 18 C-6 16.02 -6 14.04 -6 12 C-4.02 12 -2.04 12 0 12 C0 8.04 0 4.08 0 0 Z " fill="#FBFBFB" transform="translate(78,84)"/>
<path d="M0 0 C3.96 0 7.92 0 12 0 C12 3.96 12 7.92 12 12 C10.02 12 8.04 12 6 12 C6 13.98 6 15.96 6 18 C9.96 18 13.92 18 18 18 C18 16.02 18 14.04 18 12 C19.98 12 21.96 12 24 12 C24 13.98 24 15.96 24 18 C25.98 18 27.96 18 30 18 C30 21.96 30 25.92 30 30 C31.98 30 33.96 30 36 30 C36 31.98 36 33.96 36 36 C37.98 36 39.96 36 42 36 C42 39.96 42 43.92 42 48 C43.98 48 45.96 48 48 48 C48 51.96 48 55.92 48 60 C49.98 60 51.96 60 54 60 C54 54.06 54 48.12 54 42 C55.98 42 57.96 42 60 42 C60 45.96 60 49.92 60 54 C61.98 54 63.96 54 66 54 C66 55.98 66 57.96 66 60 C67.98 60 69.96 60 72 60 C72 61.98 72 63.96 72 66 C73.98 66 75.96 66 78 66 C78 64.02 78 62.04 78 60 C79.98 60 81.96 60 84 60 C84 63.96 84 67.92 84 72 C85.98 72 87.96 72 90 72 C90 70.02 90 68.04 90 66 C91.98 66 93.96 66 96 66 C96 64.02 96 62.04 96 60 C97.98 60 99.96 60 102 60 C102 61.98 102 63.96 102 66 C103.98 66 105.96 66 108 66 C108 60.06 108 54.12 108 48 C109.98 48 111.96 48 114 48 C114 49.98 114 51.96 114 54 C117.96 54 121.92 54 126 54 C126 55.98 126 57.96 126 60 C122.04 60 118.08 60 114 60 C114 63.96 114 67.92 114 72 C110.04 72 106.08 72 102 72 C102 75.96 102 79.92 102 84 C103.98 84 105.96 84 108 84 C108 82.02 108 80.04 108 78 C111.96 78 115.92 78 120 78 C120 79.98 120 81.96 120 84 C118.02 84 116.04 84 114 84 C114 89.94 114 95.88 114 102 C110.04 102 106.08 102 102 102 C102 100.02 102 98.04 102 96 C103.98 96 105.96 96 108 96 C108 94.02 108 92.04 108 90 C102.06 90 96.12 90 90 90 C90 91.98 90 93.96 90 96 C91.98 96 93.96 96 96 96 C96 97.98 96 99.96 96 102 C90.06 102 84.12 102 78 102 C78 103.98 78 105.96 78 108 C76.02 108 74.04 108 72 108 C72 109.98 72 111.96 72 114 C68.04 114 64.08 114 60 114 C60 112.02 60 110.04 60 108 C58.02 108 56.04 108 54 108 C54 109.98 54 111.96 54 114 C52.02 114 50.04 114 48 114 C48 115.98 48 117.96 48 120 C46.68 120 45.36 120 44 120 C44 116.04 44 112.08 44 108 C45.32 108 46.64 108 48 108 C48 106.02 48 104.04 48 102 C46.68 102 45.36 102 44 102 C43.94392578 100.31970703 43.94392578 100.31970703 43.88671875 98.60546875 C43.82105743 97.1327791 43.75461014 95.66012434 43.6875 94.1875 C43.65366211 93.08051758 43.65366211 93.08051758 43.61914062 91.95117188 C43.44055154 87.72960976 43.44055154 87.72960976 41.59375 84.03125 C39.75607462 82.84216593 38.14855372 82.3704403 36 82 C36 80.68 36 79.36 36 78 C37.98 78 39.96 78 42 78 C42 76.02 42 74.04 42 72 C43.98 72 45.96 72 48 72 C48 70.02 48 68.04 48 66 C46.02 66 44.04 66 42 66 C42 64.02 42 62.04 42 60 C40.02 60 38.04 60 36 60 C36 58.02 36 56.04 36 54 C34.02 54 32.04 54 30 54 C30 52.02 30 50.04 30 48 C26.04 48 22.08 48 18 48 C18 46.02 18 44.04 18 42 C19.98 42 21.96 42 24 42 C24 36.06 24 30.12 24 24 C18.06 24 12.12 24 6 24 C6 25.98 6 27.96 6 30 C4.02 30 2.04 30 0 30 C0 20.1 0 10.2 0 0 Z " fill="#010101" transform="translate(114,18)"/>
<path d="M0 0 C1.98 0 3.96 0 6 0 C6 1.98 6 3.96 6 6 C9.96 6 13.92 6 18 6 C18 7.98 18 9.96 18 12 C16.02 12 14.04 12 12 12 C12 17.94 12 23.88 12 30 C13.98 30 15.96 30 18 30 C18 35.94 18 41.88 18 48 C16.02 48 14.04 48 12 48 C12 46.02 12 44.04 12 42 C10.02 42 8.04 42 6 42 C6 43.98 6 45.96 6 48 C4.02 48 2.04 48 0 48 C0 49.98 0 51.96 0 54 C-1.98 54 -3.96 54 -6 54 C-6 52.02 -6 50.04 -6 48 C-7.98 48 -9.96 48 -12 48 C-12 49.98 -12 51.96 -12 54 C-13.98 54 -15.96 54 -18 54 C-18 55.98 -18 57.96 -18 60 C-14.04 60 -10.08 60 -6 60 C-6 61.98 -6 63.96 -6 66 C-4.02 66 -2.04 66 0 66 C0 67.98 0 69.96 0 72 C1.98 72 3.96 72 6 72 C6 73.98 6 75.96 6 78 C9.96 78 13.92 78 18 78 C18 79.98 18 81.96 18 84 C16.02 84 14.04 84 12 84 C12 85.98 12 87.96 12 90 C10.02 90 8.04 90 6 90 C6 91.98 6 93.96 6 96 C7.98 96 9.96 96 12 96 C12 99.96 12 103.92 12 108 C13.98 108 15.96 108 18 108 C18 109.98 18 111.96 18 114 C12.06 114 6.12 114 0 114 C0 110.04 0 106.08 0 102 C-1.98 102 -3.96 102 -6 102 C-6 105.96 -6 109.92 -6 114 C-13.92 114 -21.84 114 -30 114 C-30 112.02 -30 110.04 -30 108 C-28.02 108 -26.04 108 -24 108 C-24 106.02 -24 104.04 -24 102 C-27.96 102 -31.92 102 -36 102 C-36 100.02 -36 98.04 -36 96 C-32.04 96 -28.08 96 -24 96 C-24 94.02 -24 92.04 -24 90 C-27.96 90 -31.92 90 -36 90 C-36 84.06 -36 78.12 -36 72 C-37.98 72 -39.96 72 -42 72 C-42 75.96 -42 79.92 -42 84 C-43.98 84 -45.96 84 -48 84 C-48 78.06 -48 72.12 -48 66 C-46.02 66 -44.04 66 -42 66 C-42 64.02 -42 62.04 -42 60 C-38.04 60 -34.08 60 -30 60 C-30 58.02 -30 56.04 -30 54 C-31.98 54 -33.96 54 -36 54 C-36 50.04 -36 46.08 -36 42 C-32.04 42 -28.08 42 -24 42 C-24 40.02 -24 38.04 -24 36 C-22.02 36 -20.04 36 -18 36 C-18 37.98 -18 39.96 -18 42 C-16.02 42 -14.04 42 -12 42 C-12 40.02 -12 38.04 -12 36 C-8.04 36 -4.08 36 0 36 C0 34.02 0 32.04 0 30 C1.98 30 3.96 30 6 30 C6 26.04 6 22.08 6 18 C4.02 18 2.04 18 0 18 C0 16.02 0 14.04 0 12 C-1.98 12 -3.96 12 -6 12 C-6 10.02 -6 8.04 -6 6 C-4.02 6 -2.04 6 0 6 C0 4.02 0 2.04 0 0 Z " fill="#010101" transform="translate(222,126)"/>
<path d="M0 0 C1.98 0 3.96 0 6 0 C6 1.98 6 3.96 6 6 C9.96 6 13.92 6 18 6 C18 11.94 18 17.88 18 24 C19.98 24 21.96 24 24 24 C24 22.02 24 20.04 24 18 C29.94 18 35.88 18 42 18 C42 19.98 42 21.96 42 24 C43.98 24 45.96 24 48 24 C48 22.02 48 20.04 48 18 C51.96 18 55.92 18 60 18 C60 19.98 60 21.96 60 24 C58.02 24 56.04 24 54 24 C54 25.98 54 27.96 54 30 C59.94 30 65.88 30 72 30 C72 31.98 72 33.96 72 36 C73.98 36 75.96 36 78 36 C78 37.98 78 39.96 78 42 C79.32 42 80.64 42 82 42 C82.99 44.97 82.99 44.97 84 48 C82.02 48 80.04 48 78 48 C78 51.96 78 55.92 78 60 C74.04 60 70.08 60 66 60 C66 65.94 66 71.88 66 78 C67.98 78 69.96 78 72 78 C72 79.98 72 81.96 72 84 C70.02 84 68.04 84 66 84 C66 89.94 66 95.88 66 102 C64.02 102 62.04 102 60 102 C60 103.98 60 105.96 60 108 C56.04 108 52.08 108 48 108 C48 106.02 48 104.04 48 102 C49.98 102 51.96 102 54 102 C54 98.04 54 94.08 54 90 C52.02 90 50.04 90 48 90 C48 88.02 48 86.04 48 84 C42.06 84 36.12 84 30 84 C30 82.02 30 80.04 30 78 C35.94 78 41.88 78 48 78 C48 76.02 48 74.04 48 72 C49.98 72 51.96 72 54 72 C54 70.02 54 68.04 54 66 C55.98 66 57.96 66 60 66 C60 62.04 60 58.08 60 54 C56.04 54 52.08 54 48 54 C48 52.02 48 50.04 48 48 C44.04 48 40.08 48 36 48 C36 49.98 36 51.96 36 54 C37.98 54 39.96 54 42 54 C42 55.98 42 57.96 42 60 C36.06 60 30.12 60 24 60 C24 56.04 24 52.08 24 48 C22.02 48 20.04 48 18 48 C18 46.02 18 44.04 18 42 C27.9 42 37.8 42 48 42 C48 40.02 48 38.04 48 36 C44.04 36 40.08 36 36 36 C36 34.02 36 32.04 36 30 C34.02 30 32.04 30 30 30 C30 31.98 30 33.96 30 36 C28.02 36 26.04 36 24 36 C24 34.02 24 32.04 24 30 C22.02 30 20.04 30 18 30 C18 31.98 18 33.96 18 36 C16.02 36 14.04 36 12 36 C12 32.04 12 28.08 12 24 C10.02 24 8.04 24 6 24 C6 25.98 6 27.96 6 30 C4.02 30 2.04 30 0 30 C0 20.1 0 10.2 0 0 Z " fill="#010101" transform="translate(18,108)"/>
<path d="M0 0 C0.95438965 -0.00953201 1.9087793 -0.01906403 2.89208984 -0.02888489 C3.92543457 -0.02797348 4.9587793 -0.02706207 6.0234375 -0.02612305 C7.61019287 -0.03255074 7.61019287 -0.03255074 9.22900391 -0.03910828 C11.46841719 -0.04485836 13.70784915 -0.04534687 15.94726562 -0.04101562 C19.38443653 -0.03785467 22.82074805 -0.06131049 26.2578125 -0.08666992 C28.42968641 -0.08894264 30.60156264 -0.08964654 32.7734375 -0.08862305 C33.80678223 -0.09783279 34.84012695 -0.10704254 35.90478516 -0.11653137 C36.8591748 -0.11030258 37.81356445 -0.10407379 38.796875 -0.09765625 C39.63911621 -0.09828568 40.48135742 -0.0989151 41.34912109 -0.0995636 C42.02539551 0.0239296 42.70166992 0.14742279 43.3984375 0.2746582 C45.4995475 3.4263232 45.65240305 4.19071058 45.6730957 7.7902832 C45.68739372 9.15685059 45.68739372 9.15685059 45.70198059 10.55102539 C45.70106918 11.53232422 45.70015778 12.51362305 45.69921875 13.5246582 C45.70350388 14.53431641 45.707789 15.54397461 45.71220398 16.58422852 C45.717948 18.71931203 45.71844702 20.85441511 45.71411133 22.98950195 C45.71094975 26.2619754 45.73441565 29.53354646 45.75976562 32.8059082 C45.76203838 34.87882373 45.76274222 36.95174169 45.76171875 39.0246582 C45.7709285 40.00595703 45.78013824 40.98725586 45.78962708 41.99829102 C45.78339828 42.90933594 45.77716949 43.82038086 45.77075195 44.7590332 C45.77138138 45.56050781 45.7720108 46.36198242 45.7726593 47.18774414 C45.29481065 49.85255168 44.6011704 50.72050617 42.3984375 52.2746582 C40.31152344 52.64888 40.31152344 52.64888 37.8828125 52.64697266 C36.97176758 52.65320145 36.06072266 52.65943024 35.12207031 52.66584778 C34.14077148 52.65663803 33.15947266 52.64742828 32.1484375 52.63793945 C31.1387793 52.63843796 30.12912109 52.63893646 29.08886719 52.63945007 C26.95375603 52.63710912 24.81864213 52.6273794 22.68359375 52.61083984 C19.41120791 52.58725026 16.13963673 52.59027851 12.8671875 52.59692383 C10.79426596 52.59134704 8.72134787 52.58423716 6.6484375 52.57543945 C5.66713867 52.57635086 4.68583984 52.57726227 3.67480469 52.57820129 C2.76375977 52.56866928 1.85271484 52.55913727 0.9140625 52.54931641 C0.11258789 52.54470901 -0.68888672 52.54010162 -1.51464844 52.53535461 C-3.6015625 52.2746582 -3.6015625 52.2746582 -6.6015625 50.2746582 C-6.9757843 48.2253418 -6.9757843 48.2253418 -6.97387695 45.6730957 C-6.98010574 44.71870605 -6.98633453 43.76431641 -6.99275208 42.78100586 C-6.98354233 41.74766113 -6.97433258 40.71431641 -6.96484375 39.6496582 C-6.96534225 38.59182129 -6.96584076 37.53398437 -6.96635437 36.4440918 C-6.96401095 34.20465214 -6.95426679 31.96521 -6.93774414 29.72583008 C-6.91415915 26.28874273 -6.91718035 22.85243083 -6.92382812 19.4152832 C-6.91825145 17.24340356 -6.91114164 15.07152719 -6.90234375 12.8996582 C-6.90325516 11.86631348 -6.90416656 10.83296875 -6.90510559 9.76831055 C-6.89557358 8.8139209 -6.88604156 7.85953125 -6.8762207 6.8762207 C-6.87161331 6.03397949 -6.86700592 5.19173828 -6.86225891 4.32397461 C-6.31364125 0.0113292 -3.70825558 0.02028562 0 0 Z " fill="#494A4A" transform="translate(109.6015625,102.725341796875)"/>
<path d="M0 0 C1.98 0 3.96 0 6 0 C6 7.92 6 15.84 6 24 C4.02 24 2.04 24 0 24 C0 25.98 0 27.96 0 30 C1.98 30 3.96 30 6 30 C6 31.98 6 33.96 6 36 C7.98 36 9.96 36 12 36 C12 37.98 12 39.96 12 42 C17.28 42 22.56 42 28 42 C28 43.32 28 44.64 28 46 C28.66 46 29.32 46 30 46 C30 42.37 30 38.74 30 35 C30.33 35 30.66 35 31 35 C31 49.52 31 64.04 31 79 C30.67 79 30.34 79 30 79 C29.67 73.39 29.34 67.78 29 62 C28.67 65.3 28.34 68.6 28 72 C24.7 72 21.4 72 18 72 C18 70.02 18 68.04 18 66 C12.06 66 6.12 66 0 66 C0 64.02 0 62.04 0 60 C1.98 60 3.96 60 6 60 C6 58.02 6 56.04 6 54 C2.04 54 -1.92 54 -6 54 C-6 55.98 -6 57.96 -6 60 C-7.98 60 -9.96 60 -12 60 C-12 58.02 -12 56.04 -12 54 C-17.94 54 -23.88 54 -30 54 C-30 55.98 -30 57.96 -30 60 C-31.98 60 -33.96 60 -36 60 C-36 50.1 -36 40.2 -36 30 C-34.02 30 -32.04 30 -30 30 C-30 28.02 -30 26.04 -30 24 C-31.98 24 -33.96 24 -36 24 C-36 22.02 -36 20.04 -36 18 C-32.04 18 -28.08 18 -24 18 C-24 14.04 -24 10.08 -24 6 C-16.08 6 -8.16 6 0 6 C0 4.02 0 2.04 0 0 Z " fill="#FDFDFD" transform="translate(72,72)"/>
<path d="M0 0 C0.99 0.495 0.99 0.495 2 1 C3.59279446 1.0951697 5.18952177 1.12794828 6.78515625 1.12939453 C8.27680298 1.13412277 8.27680298 1.13412277 9.79858398 1.13894653 C10.87567627 1.1369223 11.95276855 1.13489807 13.0625 1.1328125 C14.164729 1.13376923 15.26695801 1.13472595 16.40258789 1.13571167 C18.73616594 1.13639306 21.06974589 1.13454163 23.40332031 1.13037109 C26.98506915 1.1250223 30.56669258 1.1303175 34.1484375 1.13671875 C36.41145861 1.13605796 38.67447964 1.13477678 40.9375 1.1328125 C42.55313843 1.13584885 42.55313843 1.13584885 44.20141602 1.13894653 C45.19584717 1.13579437 46.19027832 1.13264221 47.21484375 1.12939453 C48.53150024 1.12820114 48.53150024 1.12820114 49.87475586 1.12698364 C52.05463682 1.13646093 52.05463682 1.13646093 54 0 C54 3.96 54 7.92 54 12 C55.98 12 57.96 12 60 12 C60 8.04 60 4.08 60 0 C61.98 0 63.96 0 66 0 C66 1.98 66 3.96 66 6 C67.98 6 69.96 6 72 6 C72 4.02 72 2.04 72 0 C73.98 0 75.96 0 78 0 C78 1.98 78 3.96 78 6 C79.98 6 81.96 6 84 6 C84 7.98 84 9.96 84 12 C80.04 12 76.08 12 72 12 C72 13.98 72 15.96 72 18 C68.04 18 64.08 18 60 18 C60 21.96 60 25.92 60 30 C58.02 30 56.04 30 54 30 C54 31.98 54 33.96 54 36 C55.98 36 57.96 36 60 36 C60 37.98 60 39.96 60 42 C61.98 42 63.96 42 66 42 C66 43.98 66 45.96 66 48 C64.02 48 62.04 48 60 48 C60 49.98 60 51.96 60 54 C61.98 54 63.96 54 66 54 C66 55.98 66 57.96 66 60 C60.06 60 54.12 60 48 60 C48 56.04 48 52.08 48 48 C49.98 48 51.96 48 54 48 C54 46.02 54 44.04 54 42 C46.08 42 38.16 42 30 42 C30 40.02 30 38.04 30 36 C31.98 36 33.96 36 36 36 C36 34.02 36 32.04 36 30 C32.04 30 28.08 30 24 30 C24 31.98 24 33.96 24 36 C22.02 36 20.04 36 18 36 C18 32.04 18 28.08 18 24 C19.98 24 21.96 24 24 24 C24 22.02 24 20.04 24 18 C22.02 18 20.04 18 18 18 C18 16.02 18 14.04 18 12 C23.94 12 29.88 12 36 12 C36 13.98 36 15.96 36 18 C37.98 18 39.96 18 42 18 C42 16.02 42 14.04 42 12 C43.98 12 45.96 12 48 12 C48 10.02 48 8.04 48 6 C40.08 6 32.16 6 24 6 C24 5.34 24 4.68 24 4 C18.06 4 12.12 4 6 4 C6 4.66 6 5.32 6 6 C4.02 6 2.04 6 0 6 C0 4.02 0 2.04 0 0 Z " fill="#010101" transform="translate(102,156)"/>
<path d="M0 0 C13.86 0 27.72 0 42 0 C42 13.86 42 27.72 42 42 C28.14 42 14.28 42 0 42 C0 28.14 0 14.28 0 0 Z " fill="#FEFEFE" transform="translate(18,198)"/>
<path d="M0 0 C13.86 0 27.72 0 42 0 C42 13.86 42 27.72 42 42 C28.14 42 14.28 42 0 42 C0 28.14 0 14.28 0 0 Z " fill="#FEFEFE" transform="translate(198,18)"/>
<path d="M0 0 C13.86 0 27.72 0 42 0 C42 13.86 42 27.72 42 42 C28.14 42 14.28 42 0 42 C0 28.14 0 14.28 0 0 Z " fill="#FEFEFE" transform="translate(18,18)"/>
<path d="M0 0 C1.98 0 3.96 0 6 0 C6 1.98 6 3.96 6 6 C9.96 6 13.92 6 18 6 C18 7.98 18 9.96 18 12 C21.96 12 25.92 12 30 12 C30 13.98 30 15.96 30 18 C31.98 18 33.96 18 36 18 C36 21.96 36 25.92 36 30 C37.98 30 39.96 30 42 30 C42 28.02 42 26.04 42 24 C43.98 24 45.96 24 48 24 C48 27.96 48 31.92 48 36 C42.06 36 36.12 36 30 36 C30 34.02 30 32.04 30 30 C28.02 30 26.04 30 24 30 C24 31.98 24 33.96 24 36 C18.06 36 12.12 36 6 36 C6 34.02 6 32.04 6 30 C4.02 30 2.04 30 0 30 C0 31.98 0 33.96 0 36 C-13.86 36 -27.72 36 -42 36 C-42 32.04 -42 28.08 -42 24 C-40.02 24 -38.04 24 -36 24 C-36 25.98 -36 27.96 -36 30 C-34.02 30 -32.04 30 -30 30 C-30 28.02 -30 26.04 -30 24 C-28.02 24 -26.04 24 -24 24 C-24 25.98 -24 27.96 -24 30 C-22.02 30 -20.04 30 -18 30 C-18 24.06 -18 18.12 -18 12 C-14.04 12 -10.08 12 -6 12 C-6 10.02 -6 8.04 -6 6 C-4.02 6 -2.04 6 0 6 C0 4.02 0 2.04 0 0 Z " fill="#010101" transform="translate(120,204)"/>
<path d="M0 0 C1.98 0 3.96 0 6 0 C6 1.98 6 3.96 6 6 C7.98 6 9.96 6 12 6 C12 4.02 12 2.04 12 0 C13.98 0 15.96 0 18 0 C18 1.98 18 3.96 18 6 C21.96 6 25.92 6 30 6 C30 7.98 30 9.96 30 12 C20.1 12 10.2 12 0 12 C0 13.98 0 15.96 0 18 C1.98 18 3.96 18 6 18 C6 21.96 6 25.92 6 30 C11.94 30 17.88 30 24 30 C24 28.02 24 26.04 24 24 C22.02 24 20.04 24 18 24 C18 22.02 18 20.04 18 18 C21.96 18 25.92 18 30 18 C30 19.98 30 21.96 30 24 C33.96 24 37.92 24 42 24 C42 27.96 42 31.92 42 36 C40.02 36 38.04 36 36 36 C36 37.98 36 39.96 36 42 C34.02 42 32.04 42 30 42 C30 43.98 30 45.96 30 48 C22.08 48 14.16 48 6 48 C6 49.98 6 51.96 6 54 C-1.92 54 -9.84 54 -18 54 C-18 52.02 -18 50.04 -18 48 C-14.04 48 -10.08 48 -6 48 C-6 46.02 -6 44.04 -6 42 C-4.02 42 -2.04 42 0 42 C0 40.02 0 38.04 0 36 C-1.98 36 -3.96 36 -6 36 C-6 32.04 -6 28.08 -6 24 C-7.98 24 -9.96 24 -12 24 C-12 20.04 -12 16.08 -12 12 C-13.98 12 -15.96 12 -18 12 C-18 10.02 -18 8.04 -18 6 C-12.06 6 -6.12 6 0 6 C0 4.02 0 2.04 0 0 Z " fill="#010101" transform="translate(36,138)"/>
<path d="M0 0 C1.98 0 3.96 0 6 0 C6 1.98 6 3.96 6 6 C9.96 6 13.92 6 18 6 C18 7.98 18 9.96 18 12 C14.04 12 10.08 12 6 12 C6 15.96 6 19.92 6 24 C2.04 24 -1.92 24 -6 24 C-6 27.96 -6 31.92 -6 36 C-4.02 36 -2.04 36 0 36 C0 34.02 0 32.04 0 30 C3.96 30 7.92 30 12 30 C12 31.98 12 33.96 12 36 C10.02 36 8.04 36 6 36 C6 41.94 6 47.88 6 54 C2.04 54 -1.92 54 -6 54 C-6 52.02 -6 50.04 -6 48 C-4.02 48 -2.04 48 0 48 C0 46.02 0 44.04 0 42 C-5.94 42 -11.88 42 -18 42 C-18 43.98 -18 45.96 -18 48 C-16.02 48 -14.04 48 -12 48 C-12 49.98 -12 51.96 -12 54 C-17.94 54 -23.88 54 -30 54 C-30 55.98 -30 57.96 -30 60 C-31.98 60 -33.96 60 -36 60 C-36 61.98 -36 63.96 -36 66 C-39.96 66 -43.92 66 -48 66 C-48 64.02 -48 62.04 -48 60 C-49.98 60 -51.96 60 -54 60 C-54 61.98 -54 63.96 -54 66 C-55.98 66 -57.96 66 -60 66 C-60 67.98 -60 69.96 -60 72 C-61.32 72 -62.64 72 -64 72 C-64 68.04 -64 64.08 -64 60 C-62.68 60 -61.36 60 -60 60 C-60 58.02 -60 56.04 -60 54 C-52.08 54 -44.16 54 -36 54 C-36 52.02 -36 50.04 -36 48 C-32.04 48 -28.08 48 -24 48 C-24 44.04 -24 40.08 -24 36 C-20.04 36 -16.08 36 -12 36 C-12 34.02 -12 32.04 -12 30 C-15.96 30 -19.92 30 -24 30 C-24 28.02 -24 26.04 -24 24 C-22.02 24 -20.04 24 -18 24 C-18 22.02 -18 20.04 -18 18 C-16.02 18 -14.04 18 -12 18 C-12 16.02 -12 14.04 -12 12 C-10.02 12 -8.04 12 -6 12 C-6 13.98 -6 15.96 -6 18 C-4.02 18 -2.04 18 0 18 C0 12.06 0 6.12 0 0 Z " fill="#020202" transform="translate(222,66)"/>
<path d="M0 0 C1.98 0 3.96 0 6 0 C6 1.98 6 3.96 6 6 C7.98 6 9.96 6 12 6 C12 5.34 12 4.68 12 4 C17.94 4 23.88 4 30 4 C30 4.66 30 5.32 30 6 C31.22976562 5.91621094 32.45953125 5.83242187 33.7265625 5.74609375 C35.35935242 5.6428714 36.99216625 5.54002677 38.625 5.4375 C39.83736328 5.35338867 39.83736328 5.35338867 41.07421875 5.26757812 C45.56162516 4.99395578 49.56862499 5.03198119 54 6 C54 7.98 54 9.96 54 12 C52.02 12 50.04 12 48 12 C48 13.98 48 15.96 48 18 C46.02 18 44.04 18 42 18 C42 16.02 42 14.04 42 12 C36.06 12 30.12 12 24 12 C24 13.98 24 15.96 24 18 C25.98 18 27.96 18 30 18 C30 19.98 30 21.96 30 24 C28.02 24 26.04 24 24 24 C24 27.96 24 31.92 24 36 C25.98 36 27.96 36 30 36 C30 34.02 30 32.04 30 30 C33.96 30 37.92 30 42 30 C42 31.98 42 33.96 42 36 C40.02 36 38.04 36 36 36 C36 37.98 36 39.96 36 42 C43.92 42 51.84 42 60 42 C60 43.98 60 45.96 60 48 C58.02 48 56.04 48 54 48 C54 51.96 54 55.92 54 60 C50.04 60 46.08 60 42 60 C42 58.02 42 56.04 42 54 C38.04 54 34.08 54 30 54 C30 52.02 30 50.04 30 48 C28.02 48 26.04 48 24 48 C24 46.02 24 44.04 24 42 C22.02 42 20.04 42 18 42 C18 34.08 18 26.16 18 18 C16.02 18 14.04 18 12 18 C12 16.02 12 14.04 12 12 C8.04 12 4.08 12 0 12 C0 8.04 0 4.08 0 0 Z " fill="#FDFDFD" transform="translate(96,156)"/>
<path d="M0 0 C0.90492187 0.02320312 1.80984375 0.04640625 2.7421875 0.0703125 C4.10730469 0.09738281 4.10730469 0.09738281 5.5 0.125 C6.19867188 0.14820312 6.89734375 0.17140625 7.6171875 0.1953125 C6.6271875 2.8353125 5.6371875 5.4753125 4.6171875 8.1953125 C5.2771875 8.1953125 5.9371875 8.1953125 6.6171875 8.1953125 C6.6171875 8.8553125 6.6171875 9.5153125 6.6171875 10.1953125 C7.2771875 10.1953125 7.9371875 10.1953125 8.6171875 10.1953125 C8.6171875 10.8553125 8.6171875 11.5153125 8.6171875 12.1953125 C7.6271875 12.5253125 6.6371875 12.8553125 5.6171875 13.1953125 C5.9265625 13.9584375 6.2359375 14.7215625 6.5546875 15.5078125 C7.29612343 17.38320927 7.97946967 19.28215902 8.6171875 21.1953125 C9.2771875 21.5253125 9.9371875 21.8553125 10.6171875 22.1953125 C10.2871875 24.1753125 9.9571875 26.1553125 9.6171875 28.1953125 C8.9571875 28.1953125 8.2971875 28.1953125 7.6171875 28.1953125 C7.2871875 29.1853125 6.9571875 30.1753125 6.6171875 31.1953125 C4.9671875 30.8653125 3.3171875 30.5353125 1.6171875 30.1953125 C1.6171875 30.8553125 1.6171875 31.5153125 1.6171875 32.1953125 C2.9371875 32.1953125 4.2571875 32.1953125 5.6171875 32.1953125 C7.4296875 34.2578125 7.4296875 34.2578125 8.6171875 37.1953125 C8.3046875 41.0078125 8.3046875 41.0078125 7.6171875 44.1953125 C8.2771875 44.1953125 8.9371875 44.1953125 9.6171875 44.1953125 C9.6171875 43.5353125 9.6171875 42.8753125 9.6171875 42.1953125 C12.09628625 43.17726458 14.56402324 44.17232958 17.01171875 45.23046875 C26.07394878 49.09007667 26.07394878 49.09007667 35.6171875 48.1953125 C35.40835938 47.64230469 35.19953125 47.08929688 34.984375 46.51953125 C34.49064796 43.39434416 35.35303704 41.82354563 36.7421875 39.0078125 C37.15726563 38.12738281 37.57234375 37.24695313 38 36.33984375 C39.6171875 34.1953125 39.6171875 34.1953125 42.296875 33.39453125 C43.06257813 33.32878906 43.82828125 33.26304687 44.6171875 33.1953125 C44.6171875 32.2053125 44.6171875 31.2153125 44.6171875 30.1953125 C43.2971875 29.5353125 41.9771875 28.8753125 40.6171875 28.1953125 C40.6171875 27.2053125 40.6171875 26.2153125 40.6171875 25.1953125 C39.9571875 25.1953125 39.2971875 25.1953125 38.6171875 25.1953125 C39.4921875 20.3203125 39.4921875 20.3203125 40.6171875 19.1953125 C40.85419989 16.33653341 41.03937932 13.49647953 41.1796875 10.6328125 C41.24446289 9.42334961 41.24446289 9.42334961 41.31054688 8.18945312 C41.41694012 6.19162445 41.51759638 4.1934918 41.6171875 2.1953125 C43.2671875 1.8653125 44.9171875 1.5353125 46.6171875 1.1953125 C47.79259155 3.5461206 47.75605339 4.97646675 47.77832031 7.59741211 C47.78792786 8.50853256 47.7975354 9.41965302 47.80743408 10.35838318 C47.81168396 11.34484329 47.81593384 12.33130341 47.8203125 13.34765625 C47.82601257 14.3587294 47.83171265 15.36980255 47.83758545 16.41151428 C47.84704166 18.55257111 47.85357189 20.69364254 47.85742188 22.8347168 C47.86713766 26.11597945 47.89815962 29.39661856 47.9296875 32.67773438 C47.93621636 34.7552046 47.94146729 36.83267932 47.9453125 38.91015625 C47.9576593 39.89459213 47.9700061 40.87902802 47.98272705 41.89329529 C47.97972595 42.8075679 47.97672485 43.72184052 47.97363281 44.66381836 C47.97910126 45.87055458 47.97910126 45.87055458 47.98468018 47.10166931 C47.51550637 49.77460027 46.82596701 50.63901725 44.6171875 52.1953125 C42.53027344 52.5695343 42.53027344 52.5695343 40.1015625 52.56762695 C39.19051758 52.57385574 38.27947266 52.58008453 37.34082031 52.58650208 C36.35952148 52.57729233 35.37822266 52.56808258 34.3671875 52.55859375 C33.3575293 52.55909225 32.34787109 52.55959076 31.30761719 52.56010437 C29.17250603 52.55776342 27.03739213 52.5480337 24.90234375 52.53149414 C21.62995791 52.50790456 18.35838673 52.51093281 15.0859375 52.51757812 C13.01301596 52.51200134 10.94009787 52.50489146 8.8671875 52.49609375 C7.88588867 52.49700516 6.90458984 52.49791656 5.89355469 52.49885559 C4.98250977 52.48932358 4.07146484 52.47979156 3.1328125 52.4699707 C2.33133789 52.46536331 1.52986328 52.46075592 0.70410156 52.45600891 C-1.3828125 52.1953125 -1.3828125 52.1953125 -4.3828125 50.1953125 C-4.7570343 48.14599609 -4.7570343 48.14599609 -4.75512695 45.59375 C-4.76135574 44.63936035 -4.76758453 43.6849707 -4.77400208 42.70166016 C-4.76479233 41.66831543 -4.75558258 40.6349707 -4.74609375 39.5703125 C-4.74659225 38.51247559 -4.74709076 37.45463867 -4.74760437 36.36474609 C-4.74526095 34.12530644 -4.73551679 31.8858643 -4.71899414 29.64648438 C-4.69540915 26.20939703 -4.69843035 22.77308512 -4.70507812 19.3359375 C-4.69950145 17.16405785 -4.69239164 14.99218149 -4.68359375 12.8203125 C-4.68450516 11.78696777 -4.68541656 10.75362305 -4.68635559 9.68896484 C-4.67682358 8.7345752 -4.66729156 7.78018555 -4.6574707 6.796875 C-4.65286331 5.95463379 -4.64825592 5.11239258 -4.64350891 4.24462891 C-4.24059077 1.07731736 -3.12280866 0.25596792 0 0 Z " fill="#0E0E0E" transform="translate(107.3828125,102.8046875)"/>
<path d="M0 0 C1.98 0 3.96 0 6 0 C6 1.98 6 3.96 6 6 C13.92 6 21.84 6 30 6 C30 7.98 30 9.96 30 12 C33.96 12 37.92 12 42 12 C42 13.98 42 15.96 42 18 C38.04 18 34.08 18 30 18 C30 21.96 30 25.92 30 30 C26.04 30 22.08 30 18 30 C18 31.98 18 33.96 18 36 C10.08 36 2.16 36 -6 36 C-6 28.08 -6 20.16 -6 12 C-4.02 12 -2.04 12 0 12 C0 8.04 0 4.08 0 0 Z " fill="#FEFEFE" transform="translate(168,84)"/>
<path d="M0 0 C1.98 0 3.96 0 6 0 C6 1.98 6 3.96 6 6 C7.98 6 9.96 6 12 6 C12 11.94 12 17.88 12 24 C13.98 24 15.96 24 18 24 C18 25.98 18 27.96 18 30 C16.02 30 14.04 30 12 30 C12 31.98 12 33.96 12 36 C10.02 36 8.04 36 6 36 C6 37.98 6 39.96 6 42 C4.02 42 2.04 42 0 42 C0 43.98 0 45.96 0 48 C-1.98 48 -3.96 48 -6 48 C-6 46.02 -6 44.04 -6 42 C-9.96 42 -13.92 42 -18 42 C-18 36.06 -18 30.12 -18 24 C-16.02 24 -14.04 24 -12 24 C-12 22.02 -12 20.04 -12 18 C-8.04 18 -4.08 18 0 18 C0 16.02 0 14.04 0 12 C-1.98 12 -3.96 12 -6 12 C-6 10.02 -6 8.04 -6 6 C-4.02 6 -2.04 6 0 6 C0 4.02 0 2.04 0 0 Z " fill="#FDFDFD" transform="translate(84,18)"/>
<path d="M0 0 C1.98 0 3.96 0 6 0 C6 5.94 6 11.88 6 18 C9.96 18 13.92 18 18 18 C18 19.98 18 21.96 18 24 C19.32 24 20.64 24 22 24 C22.103125 23.236875 22.20625 22.47375 22.3125 21.6875 C23.05539884 18.78344089 23.56993983 17.71004234 26 16 C27.32 16 28.64 16 30 16 C30 14.68 30 13.36 30 12 C26.04 12 22.08 12 18 12 C18 8.04 18 4.08 18 0 C19.98 0 21.96 0 24 0 C24 1.98 24 3.96 24 6 C25.98 6 27.96 6 30 6 C30 4.02 30 2.04 30 0 C31.98 0 33.96 0 36 0 C36 5.28 36 10.56 36 16 C41.94 16 47.88 16 54 16 C54 14.68 54 13.36 54 12 C55.98 12 57.96 12 60 12 C60 13.32 60 14.64 60 16 C61.98 16 63.96 16 66 16 C66 14.68 66 13.36 66 12 C67.98 12 69.96 12 72 12 C72 13.32 72 14.64 72 16 C72.763125 16.103125 73.52625 16.20625 74.3125 16.3125 C77.38605293 17.09875773 78.22494027 17.39933109 80 20 C80.21714241 22.81127043 80.28284276 25.3883345 80.1875 28.1875 C80.16719727 29.31188477 80.16719727 29.31188477 80.14648438 30.45898438 C80.11118539 32.30629767 80.05737917 34.15324066 80 36 C81.32 36 82.64 36 84 36 C84 37.98 84 39.96 84 42 C82.68 42 81.36 42 80 42 C80 45.63 80 49.26 80 53 C79.01 53.495 79.01 53.495 78 54 C77.970271 52.61494263 77.970271 52.61494263 77.93994141 51.2019043 C77.86182261 47.77438826 77.77513003 44.34731202 77.68261719 40.92016602 C77.64434653 39.43717788 77.60949022 37.95409752 77.578125 36.47094727 C77.532432 34.33836928 77.47444662 32.20642509 77.4140625 30.07421875 C77.3826416 28.79119873 77.3512207 27.50817871 77.31884766 26.1862793 C77.23620772 22.84612541 77.23620772 22.84612541 75 20 C72.8798745 19.54229148 72.8798745 19.54229148 70.3984375 19.61181641 C69.44404785 19.60235992 68.4896582 19.59290344 67.50634766 19.5831604 C66.47300293 19.58923309 65.4396582 19.59530579 64.375 19.6015625 C63.31716309 19.59869232 62.25932617 19.59582214 61.16943359 19.59286499 C58.93000759 19.59082096 56.69056386 19.59637436 54.45117188 19.60888672 C51.01391866 19.62493501 47.57784143 19.60904883 44.140625 19.58984375 C41.96874739 19.59182612 39.79687052 19.59566967 37.625 19.6015625 C36.59165527 19.59548981 35.55831055 19.58941711 34.49365234 19.5831604 C33.5392627 19.59261688 32.58487305 19.60207336 31.6015625 19.61181641 C30.75932129 19.61420319 29.91708008 19.61658997 29.04931641 19.61904907 C28.37304199 19.74476288 27.69676758 19.87047668 27 20 C24.81005752 23.28491373 24.64722661 24.83095639 24.375 28.6875 C24.30023438 29.68136719 24.22546875 30.67523438 24.1484375 31.69921875 C24.09945312 32.45847656 24.05046875 33.21773437 24 34 C23.34 34 22.68 34 22 34 C22 32.68 22 31.36 22 30 C16.72 30 11.44 30 6 30 C6 28.02 6 26.04 6 24 C4.02 24 2.04 24 0 24 C0 22.02 0 20.04 0 18 C-1.98 18 -3.96 18 -6 18 C-6 16.02 -6 14.04 -6 12 C-4.02 12 -2.04 12 0 12 C0 8.04 0 4.08 0 0 Z " fill="#FDFDFD" transform="translate(78,84)"/>
<path d="M0 0 C13.86 0 27.72 0 42 0 C42 13.86 42 27.72 42 42 C28.14 42 14.28 42 0 42 C0 28.14 0 14.28 0 0 Z M6 6 C6 15.9 6 25.8 6 36 C15.9 36 25.8 36 36 36 C36 26.1 36 16.2 36 6 C26.1 6 16.2 6 6 6 Z " fill="#000000" transform="translate(18,198)"/>
<path d="M0 0 C13.86 0 27.72 0 42 0 C42 13.86 42 27.72 42 42 C28.14 42 14.28 42 0 42 C0 28.14 0 14.28 0 0 Z M6 6 C6 15.9 6 25.8 6 36 C15.9 36 25.8 36 36 36 C36 26.1 36 16.2 36 6 C26.1 6 16.2 6 6 6 Z " fill="#000000" transform="translate(198,18)"/>
<path d="M0 0 C13.86 0 27.72 0 42 0 C42 13.86 42 27.72 42 42 C28.14 42 14.28 42 0 42 C0 28.14 0 14.28 0 0 Z M6 6 C6 15.9 6 25.8 6 36 C15.9 36 25.8 36 36 36 C36 26.1 36 16.2 36 6 C26.1 6 16.2 6 6 6 Z " fill="#000000" transform="translate(18,18)"/>
<path d="M0 0 C1.98 0 3.96 0 6 0 C6 3.96 6 7.92 6 12 C7.98 12 9.96 12 12 12 C12 13.98 12 15.96 12 18 C13.98 18 15.96 18 18 18 C18 19.98 18 21.96 18 24 C19.98 24 21.96 24 24 24 C24 22.02 24 20.04 24 18 C25.98 18 27.96 18 30 18 C30 21.96 30 25.92 30 30 C22.08 30 14.16 30 6 30 C6 28.02 6 26.04 6 24 C4.02 24 2.04 24 0 24 C0 27.96 0 31.92 0 36 C-1.98 36 -3.96 36 -6 36 C-6 43.92 -6 51.84 -6 60 C-7.32 60 -8.64 60 -10 60 C-10.03738281 58.87980469 -10.07476562 57.75960937 -10.11328125 56.60546875 C-10.17894257 55.1327791 -10.24538986 53.66012434 -10.3125 52.1875 C-10.33505859 51.44951172 -10.35761719 50.71152344 -10.38085938 49.95117188 C-10.55944846 45.72960976 -10.55944846 45.72960976 -12.40625 42.03125 C-14.24392538 40.84216593 -15.85144628 40.3704403 -18 40 C-18 38.68 -18 37.36 -18 36 C-16.02 36 -14.04 36 -12 36 C-12 34.02 -12 32.04 -12 30 C-10.02 30 -8.04 30 -6 30 C-6 28.02 -6 26.04 -6 24 C-7.98 24 -9.96 24 -12 24 C-12 22.02 -12 20.04 -12 18 C-13.98 18 -15.96 18 -18 18 C-18 16.02 -18 14.04 -18 12 C-16.02 12 -14.04 12 -12 12 C-12 10.02 -12 8.04 -12 6 C-10.02 6 -8.04 6 -6 6 C-6 9.96 -6 13.92 -6 18 C-4.02 18 -2.04 18 0 18 C0 12.06 0 6.12 0 0 Z " fill="#030303" transform="translate(168,60)"/>
<path d="M0 0 C1.98 0 3.96 0 6 0 C6 1.98 6 3.96 6 6 C7.98 6 9.96 6 12 6 C12 4.02 12 2.04 12 0 C17.94 0 23.88 0 30 0 C30 5.94 30 11.88 30 18 C28.02 18 26.04 18 24 18 C24 19.98 24 21.96 24 24 C27.96 24 31.92 24 36 24 C36 25.98 36 27.96 36 30 C37.98 30 39.96 30 42 30 C42 31.98 42 33.96 42 36 C34.08 36 26.16 36 18 36 C18 34.02 18 32.04 18 30 C16.02 30 14.04 30 12 30 C12 28.02 12 26.04 12 24 C13.98 24 15.96 24 18 24 C18 22.02 18 20.04 18 18 C16.02 18 14.04 18 12 18 C12 16.02 12 14.04 12 12 C10.02 12 8.04 12 6 12 C6 13.98 6 15.96 6 18 C4.02 18 2.04 18 0 18 C0 12.06 0 6.12 0 0 Z " fill="#FDFDFD" transform="translate(108,42)"/>
<path d="M0 0 C1.98 0 3.96 0 6 0 C6 3.96 6 7.92 6 12 C4.02 12 2.04 12 0 12 C0 17.94 0 23.88 0 30 C1.98 30 3.96 30 6 30 C6 33.96 6 37.92 6 42 C9.96 42 13.92 42 18 42 C18 43.32 18 44.64 18 46 C17.21625 46.28875 16.4325 46.5775 15.625 46.875 C12.90328368 47.84912254 12.90328368 47.84912254 11 50 C10.3574765 52.06874034 10.3574765 52.06874034 10 54 C8.68 54 7.36 54 6 54 C6 52.02 6 50.04 6 48 C2.04 48 -1.92 48 -6 48 C-6 42.06 -6 36.12 -6 30 C-7.98 30 -9.96 30 -12 30 C-12 26.04 -12 22.08 -12 18 C-13.98 18 -15.96 18 -18 18 C-18 19.98 -18 21.96 -18 24 C-19.98 24 -21.96 24 -24 24 C-24 20.04 -24 16.08 -24 12 C-22.02 12 -20.04 12 -18 12 C-18 10.02 -18 8.04 -18 6 C-16.02 6 -14.04 6 -12 6 C-12 7.98 -12 9.96 -12 12 C-10.02 12 -8.04 12 -6 12 C-6 10.02 -6 8.04 -6 6 C-4.02 6 -2.04 6 0 6 C0 4.02 0 2.04 0 0 Z " fill="#010101" transform="translate(90,54)"/>
<path d="M0 0 C5.94 0 11.88 0 18 0 C18 1.98 18 3.96 18 6 C16.02 6 14.04 6 12 6 C12 9.96 12 13.92 12 18 C13.98 18 15.96 18 18 18 C18 19.98 18 21.96 18 24 C19.98 24 21.96 24 24 24 C24 29.94 24 35.88 24 42 C22.02 42 20.04 42 18 42 C18 38.04 18 34.08 18 30 C16.02 30 14.04 30 12 30 C12 28.02 12 26.04 12 24 C8.04 24 4.08 24 0 24 C0 25.98 0 27.96 0 30 C-3.96 30 -7.92 30 -12 30 C-12 28.02 -12 26.04 -12 24 C-10.02 24 -8.04 24 -6 24 C-6 20.04 -6 16.08 -6 12 C-7.98 12 -9.96 12 -12 12 C-12 10.02 -12 8.04 -12 6 C-8.04 6 -4.08 6 0 6 C0 4.02 0 2.04 0 0 Z " fill="#010101" transform="translate(168,18)"/>
<path d="M0 0 C3.96 0 7.92 0 12 0 C12 1.98 12 3.96 12 6 C15.96 6 19.92 6 24 6 C24 9.96 24 13.92 24 18 C22.02 18 20.04 18 18 18 C18 19.98 18 21.96 18 24 C16.02 24 14.04 24 12 24 C12 25.98 12 27.96 12 30 C6.06 30 0.12 30 -6 30 C-6 28.02 -6 26.04 -6 24 C-7.98 24 -9.96 24 -12 24 C-12 20.04 -12 16.08 -12 12 C-6.06 12 -0.12 12 6 12 C6 10.02 6 8.04 6 6 C4.02 6 2.04 6 0 6 C0 4.02 0 2.04 0 0 Z " fill="#FDFDFD" transform="translate(54,156)"/>
<path d="M0 0 C0.33 0 0.66 0 1 0 C1 14.52 1 29.04 1 44 C0.67 44 0.34 44 0 44 C-0.33 38.39 -0.66 32.78 -1 27 C-1.33 30.3 -1.66 33.6 -2 37 C-5.3 37 -8.6 37 -12 37 C-12 35.02 -12 33.04 -12 31 C-17.94 31 -23.88 31 -30 31 C-30 29.02 -30 27.04 -30 25 C-28.02 25 -26.04 25 -24 25 C-24 21.04 -24 17.08 -24 13 C-22.02 13 -20.04 13 -18 13 C-18 11.02 -18 9.04 -18 7 C-12.72 7 -7.44 7 -2 7 C-2 8.32 -2 9.64 -2 11 C-1.34 11 -0.68 11 0 11 C0 7.37 0 3.74 0 0 Z " fill="#E7E7E7" transform="translate(102,107)"/>
<path d="M0 0 C1.98 0 3.96 0 6 0 C6 1.98 6 3.96 6 6 C9.96 6 13.92 6 18 6 C18 11.94 18 17.88 18 24 C19.98 24 21.96 24 24 24 C24 25.98 24 27.96 24 30 C22.02 30 20.04 30 18 30 C18 31.98 18 33.96 18 36 C16.02 36 14.04 36 12 36 C12 32.04 12 28.08 12 24 C10.02 24 8.04 24 6 24 C6 25.98 6 27.96 6 30 C4.02 30 2.04 30 0 30 C0 20.1 0 10.2 0 0 Z " fill="#000000" transform="translate(18,108)"/>
<path d="M0 0 C5.94 0 11.88 0 18 0 C18 1.98 18 3.96 18 6 C14.04 6 10.08 6 6 6 C6 7.98 6 9.96 6 12 C7.98 12 9.96 12 12 12 C12 13.98 12 15.96 12 18 C10.02 18 8.04 18 6 18 C6 19.98 6 21.96 6 24 C7.98 24 9.96 24 12 24 C12 25.98 12 27.96 12 30 C8.04 30 4.08 30 0 30 C0 28.02 0 26.04 0 24 C-1.98 24 -3.96 24 -6 24 C-6 22.02 -6 20.04 -6 18 C-7.98 18 -9.96 18 -12 18 C-12 16.02 -12 14.04 -12 12 C-8.04 12 -4.08 12 0 12 C0 8.04 0 4.08 0 0 Z " fill="#010101" transform="translate(48,78)"/>
<path d="M0 0 C1.98 0 3.96 0 6 0 C6 1.98 6 3.96 6 6 C7.98 6 9.96 6 12 6 C12 4.02 12 2.04 12 0 C17.94 0 23.88 0 30 0 C30 5.94 30 11.88 30 18 C28.02 18 26.04 18 24 18 C24 14.04 24 10.08 24 6 C22.02 6 20.04 6 18 6 C18 9.96 18 13.92 18 18 C16.02 18 14.04 18 12 18 C12 16.02 12 14.04 12 12 C10.02 12 8.04 12 6 12 C6 13.98 6 15.96 6 18 C4.02 18 2.04 18 0 18 C0 12.06 0 6.12 0 0 Z " fill="#FEFEFE" transform="translate(108,42)"/>
<path d="M0 0 C1.98 0 3.96 0 6 0 C6 1.98 6 3.96 6 6 C9.96 6 13.92 6 18 6 C18 7.98 18 9.96 18 12 C16.02 12 14.04 12 12 12 C12 19.92 12 27.84 12 36 C10.02 36 8.04 36 6 36 C6 30.06 6 24.12 6 18 C4.02 18 2.04 18 0 18 C0 16.02 0 14.04 0 12 C-1.98 12 -3.96 12 -6 12 C-6 10.02 -6 8.04 -6 6 C-4.02 6 -2.04 6 0 6 C0 4.02 0 2.04 0 0 Z " fill="#010101" transform="translate(222,126)"/>
<path d="M0 0 C5.94 0 11.88 0 18 0 C18 5.94 18 11.88 18 18 C12.06 18 6.12 18 0 18 C0 12.06 0 6.12 0 0 Z " fill="#000000" transform="translate(30,210)"/>
<path d="M0 0 C5.94 0 11.88 0 18 0 C18 5.94 18 11.88 18 18 C12.06 18 6.12 18 0 18 C0 12.06 0 6.12 0 0 Z " fill="#FDFDFD" transform="translate(192,192)"/>
<path d="M0 0 C1.98 0 3.96 0 6 0 C6 1.98 6 3.96 6 6 C7.98 6 9.96 6 12 6 C12 4.02 12 2.04 12 0 C13.98 0 15.96 0 18 0 C18 1.98 18 3.96 18 6 C21.96 6 25.92 6 30 6 C30 7.98 30 9.96 30 12 C20.1 12 10.2 12 0 12 C0 13.98 0 15.96 0 18 C-1.98 18 -3.96 18 -6 18 C-6 14.04 -6 10.08 -6 6 C-4.02 6 -2.04 6 0 6 C0 4.02 0 2.04 0 0 Z " fill="#FEFEFE" transform="translate(36,138)"/>
<path d="M0 0 C1.98 0 3.96 0 6 0 C6 3.96 6 7.92 6 12 C4.02 12 2.04 12 0 12 C0 13.98 0 15.96 0 18 C1.98 18 3.96 18 6 18 C6 19.98 6 21.96 6 24 C7.98 24 9.96 24 12 24 C12 25.98 12 27.96 12 30 C6.06 30 0.12 30 -6 30 C-6 22.08 -6 14.16 -6 6 C-4.02 6 -2.04 6 0 6 C0 4.02 0 2.04 0 0 Z " fill="#000000" transform="translate(72,84)"/>
<path d="M0 0 C5.94 0 11.88 0 18 0 C18 5.94 18 11.88 18 18 C12.06 18 6.12 18 0 18 C0 12.06 0 6.12 0 0 Z " fill="#000000" transform="translate(210,30)"/>
<path d="M0 0 C5.94 0 11.88 0 18 0 C18 5.94 18 11.88 18 18 C12.06 18 6.12 18 0 18 C0 12.06 0 6.12 0 0 Z " fill="#000000" transform="translate(30,30)"/>
<path d="M0 0 C5.94 0 11.88 0 18 0 C18 0.66 18 1.32 18 2 C19.22976562 1.91621094 20.45953125 1.83242187 21.7265625 1.74609375 C23.35935242 1.6428714 24.99216625 1.54002677 26.625 1.4375 C27.83736328 1.35338867 27.83736328 1.35338867 29.07421875 1.26757812 C33.56162516 0.99395578 37.56862499 1.03198119 42 2 C42 3.98 42 5.96 42 8 C40.02 8 38.04 8 36 8 C36 9.98 36 11.96 36 14 C34.02 14 32.04 14 30 14 C30 12.02 30 10.04 30 8 C22.08 8 14.16 8 6 8 C5.67 6.02 5.34 4.04 5 2 C3.35 1.67 1.7 1.34 0 1 C0 0.67 0 0.34 0 0 Z " fill="#F9F9F9" transform="translate(108,160)"/>
<path d="M0 0 C3.96 0 7.92 0 12 0 C12 1.98 12 3.96 12 6 C13.98 6 15.96 6 18 6 C18 7.98 18 9.96 18 12 C12.06 12 6.12 12 0 12 C0 15.96 0 19.92 0 24 C-1.98 24 -3.96 24 -6 24 C-6 18.06 -6 12.12 -6 6 C-4.02 6 -2.04 6 0 6 C0 4.02 0 2.04 0 0 Z " fill="#000000" transform="translate(72,36)"/>
<path d="M0 0 C1.98 0 3.96 0 6 0 C6 1.32 6 2.64 6 4 C7.98 4 9.96 4 12 4 C12 2.68 12 1.36 12 0 C13.98 0 15.96 0 18 0 C18 1.32 18 2.64 18 4 C18.763125 4.103125 19.52625 4.20625 20.3125 4.3125 C23.38605293 5.09875773 24.22494027 5.39933109 26 8 C26.21714241 10.81127043 26.28284276 13.3883345 26.1875 16.1875 C26.16719727 17.31188477 26.16719727 17.31188477 26.14648438 18.45898438 C26.11118539 20.30629767 26.05737917 22.15324066 26 24 C27.32 24 28.64 24 30 24 C30 25.98 30 27.96 30 30 C28.68 30 27.36 30 26 30 C26 33.63 26 37.26 26 41 C25.01 41.495 25.01 41.495 24 42 C23.970271 40.61494263 23.970271 40.61494263 23.93994141 39.2019043 C23.86182261 35.77438826 23.77513003 32.34731202 23.68261719 28.92016602 C23.64434653 27.43717788 23.60949022 25.95409752 23.578125 24.47094727 C23.532432 22.33836928 23.47444662 20.20642509 23.4140625 18.07421875 C23.3826416 16.79119873 23.3512207 15.50817871 23.31884766 14.1862793 C23.23620772 10.84612541 23.23620772 10.84612541 21 8 C18.948375 7.52511301 18.948375 7.52511301 16.55029297 7.56762695 C15.62948944 7.54783279 14.70868591 7.52803864 13.75997925 7.50764465 C12.76410797 7.50125473 11.76823669 7.49486481 10.7421875 7.48828125 C9.72399933 7.47033005 8.70581116 7.45237885 7.6567688 7.43388367 C4.39622168 7.37958653 1.13582252 7.34582262 -2.125 7.3125 C-4.33205193 7.27934408 -6.53908429 7.24485606 -8.74609375 7.20898438 C-14.16392981 7.12384925 -19.58178457 7.05558196 -25 7 C-25 6.67 -25 6.34 -25 6 C-22.94921875 5.77213542 -20.8984375 5.54427083 -18.84765625 5.31640625 C-16.98859771 5.18113386 -16.98859771 5.18113386 -16 4 C-13.30345146 3.92680379 -10.63308542 3.90757463 -7.9375 3.9375 C-7.17888672 3.94201172 -6.42027344 3.94652344 -5.63867188 3.95117188 C-3.75908129 3.9629932 -1.87953101 3.98092922 0 4 C0 2.68 0 1.36 0 0 Z " fill="#F0F0F0" transform="translate(132,96)"/>
<path d="M0 0 C2.84593435 2.26215294 3.85911475 3.8657846 4.30859375 7.484375 C4.37178593 10.0566683 4.38736322 12.45511376 4 15 C3.34 15.66 2.68 16.32 2 17 C2 16.01 2 15.02 2 14 C1.01 14.33 0.02 14.66 -1 15 C-3.0859375 14.6953125 -3.0859375 14.6953125 -5.375 14.125 C-6.16519531 13.93421875 -6.95539063 13.7434375 -7.76953125 13.546875 C-8.50558594 13.36640625 -9.24164063 13.1859375 -10 13 C-11.66534667 12.66013333 -13.33129513 12.32297514 -15 12 C-15.33 12.66 -15.66 13.32 -16 14 C-17.65 14 -19.3 14 -21 14 C-18.35853562 7.87180264 -15.59646231 3.75261626 -10 0 C-6.16652698 -1.27782434 -3.91272241 -0.96101954 0 0 Z " fill="#0B0C0B" transform="translate(138,107)"/>
<path d="M0 0 C3.96 0 7.92 0 12 0 C12 7.92 12 15.84 12 24 C10.02 24 8.04 24 6 24 C6 22.02 6 20.04 6 18 C4.02 18 2.04 18 0 18 C0 12.06 0 6.12 0 0 Z " fill="#FEFEFE" transform="translate(84,168)"/>
<path d="M0 0 C0.66 0 1.32 0 2 0 C3.38232443 1.62626404 4.71937515 3.2925002 6 5 C5.2265625 6.3303125 5.2265625 6.3303125 4.4375 7.6875 C2.9131063 11.20023331 2.85052105 12.44706507 4 16 C-3.35163482 18.75686306 -10.65695565 15.13049918 -17.36328125 12.25390625 C-20 11 -20 11 -23 9 C-23 9.66 -23 10.32 -23 11 C-23.66 11 -24.32 11 -25 11 C-24.42415568 8.61435923 -23.77772405 6.33317216 -23 4 C-22.34 4 -21.68 4 -21 4 C-20.67 3.34 -20.34 2.68 -20 2 C-19.67 2.99 -19.34 3.98 -19 5 C-14.05 5.33 -9.1 5.66 -4 6 C-4 7.65 -4 9.3 -4 11 C-3.34 11 -2.68 11 -2 11 C-1.90912109 9.93458984 -1.90912109 9.93458984 -1.81640625 8.84765625 C-1.73261719 7.92855469 -1.64882812 7.00945312 -1.5625 6.0625 C-1.48128906 5.14597656 -1.40007812 4.22945312 -1.31640625 3.28515625 C-1 1 -1 1 0 0 Z " fill="#3B3B3B" transform="translate(140,136)"/>
<path d="M0 0 C3.96 0 7.92 0 12 0 C12 1.98 12 3.96 12 6 C13.98 6 15.96 6 18 6 C18 9.96 18 13.92 18 18 C16.02 18 14.04 18 12 18 C12 16.02 12 14.04 12 12 C6.06 12 0.12 12 -6 12 C-6 10.02 -6 8.04 -6 6 C-4.02 6 -2.04 6 0 6 C0 4.02 0 2.04 0 0 Z " fill="#FDFDFD" transform="translate(78,126)"/>
<path d="M0 0 C5.94 0 11.88 0 18 0 C18 3.96 18 7.92 18 12 C14.04 12 10.08 12 6 12 C6 13.98 6 15.96 6 18 C4.02 18 2.04 18 0 18 C0 12.06 0 6.12 0 0 Z " fill="#010101" transform="translate(42,126)"/>
<path d="M0 0 C3.96 0 7.92 0 12 0 C12 3.96 12 7.92 12 12 C10.02 12 8.04 12 6 12 C6 17.94 6 23.88 6 30 C4.02 30 2.04 30 0 30 C0 20.1 0 10.2 0 0 Z " fill="#010101" transform="translate(114,18)"/>
<path d="M0 0 C0.639375 0.309375 1.27875 0.61875 1.9375 0.9375 C5.92049104 2.31935403 9.81650849 2.6536543 14 3 C14 4.32 14 5.64 14 7 C14.99 7 15.98 7 17 7 C17.33 6.01 17.66 5.02 18 4 C18.1875 6.375 18.1875 6.375 18 9 C17.01 9.66 16.02 10.32 15 11 C14.48789327 13.94923582 14.48789327 13.94923582 14.4375 17.3125 C14.27294874 21.68557444 13.86033182 25.01784393 12 29 C11.34 29 10.68 29 10 29 C10 27.35 10 25.7 10 24 C8.081875 24.061875 8.081875 24.061875 6.125 24.125 C3.9453125 24.1953125 3.9453125 24.1953125 2 24 C1.34 23.34 0.68 22.68 0 22 C1.11375 21.731875 2.2275 21.46375 3.375 21.1875 C7.21840951 20.34190981 7.21840951 20.34190981 9 17 C9.38499891 15.34450469 9.72793135 13.6777567 10 12 C9.01 12.33 8.02 12.66 7 13 C6.34 12.01 5.68 11.02 5 10 C4.67 10.99 4.34 11.98 4 13 C2.0625 12.625 2.0625 12.625 0 12 C-0.33 11.34 -0.66 10.68 -1 10 C-1.66 9.67 -2.32 9.34 -3 9 C-2.01 6.03 -1.02 3.06 0 0 Z " fill="#8C928B" transform="translate(126,118)"/>
<path d="M0 0 C0.33 0 0.66 0 1 0 C1.03738281 1.26457031 1.07476562 2.52914062 1.11328125 3.83203125 C1.17893833 5.4922173 1.24538576 7.15237222 1.3125 8.8125 C1.33505859 9.64587891 1.35761719 10.47925781 1.38085938 11.33789062 C1.41630859 12.14033203 1.45175781 12.94277344 1.48828125 13.76953125 C1.51446533 14.50792236 1.54064941 15.24631348 1.56762695 16.00708008 C2.12559879 18.5789175 2.95039073 19.37038333 5 21 C7.19278255 21.47030995 7.19278255 21.47030995 9.6550293 21.43237305 C11.06615242 21.46206429 11.06615242 21.46206429 12.50578308 21.49235535 C13.51836685 21.49874527 14.53095062 21.50513519 15.57421875 21.51171875 C16.61318802 21.52966995 17.65215729 21.54762115 18.72261047 21.56611633 C22.04419891 21.62034043 25.36564266 21.65415428 28.6875 21.6875 C30.93817123 21.72066234 33.18882334 21.75515097 35.43945312 21.79101562 C40.95950568 21.87607368 46.47957669 21.94437223 52 22 C52.495 23.485 52.495 23.485 53 25 C45.95259884 25.10137004 38.90538548 25.17145284 31.85742188 25.21972656 C29.45956394 25.23984936 27.06175512 25.26715059 24.6640625 25.30175781 C21.21862677 25.3502449 17.77383948 25.37296241 14.328125 25.390625 C12.71855927 25.42159271 12.71855927 25.42159271 11.07647705 25.45318604 C9.57537384 25.45363922 9.57537384 25.45363922 8.04394531 25.45410156 C7.16458313 25.46298401 6.28522095 25.47186646 5.37921143 25.48101807 C2.16179529 24.83053561 0.96268369 23.58811447 -1 21 C-1 19.68 -1 18.36 -1 17 C-2.32 17 -3.64 17 -5 17 C-5 15.02 -5 13.04 -5 11 C-3.68 11 -2.36 11 -1 11 C-1.01160156 10.28972656 -1.02320312 9.57945312 -1.03515625 8.84765625 C-1.04869141 7.46900391 -1.04869141 7.46900391 -1.0625 6.0625 C-1.07410156 5.14597656 -1.08570312 4.22945312 -1.09765625 3.28515625 C-1 1 -1 1 0 0 Z " fill="#D5D5D5" transform="translate(101,133)"/>
<path d="M0 0 C1.98 0 3.96 0 6 0 C6 3.96 6 7.92 6 12 C7.98 12 9.96 12 12 12 C12 13.98 12 15.96 12 18 C6.06 18 0.12 18 -6 18 C-6 14.04 -6 10.08 -6 6 C-4.02 6 -2.04 6 0 6 C0 4.02 0 2.04 0 0 Z " fill="#000000" transform="translate(228,222)"/>
<path d="M0 0 C5.94 0 11.88 0 18 0 C18 3.96 18 7.92 18 12 C16.02 12 14.04 12 12 12 C12 13.98 12 15.96 12 18 C10.02 18 8.04 18 6 18 C6 14.04 6 10.08 6 6 C4.02 6 2.04 6 0 6 C0 4.02 0 2.04 0 0 Z " fill="#FEFEFE" transform="translate(150,216)"/>
<path d="M0 0 C1.98 0 3.96 0 6 0 C6 1.98 6 3.96 6 6 C7.98 6 9.96 6 12 6 C12 9.96 12 13.92 12 18 C8.04 18 4.08 18 0 18 C0 16.02 0 14.04 0 12 C-1.98 12 -3.96 12 -6 12 C-6 10.02 -6 8.04 -6 6 C-4.02 6 -2.04 6 0 6 C0 4.02 0 2.04 0 0 Z " fill="#010101" transform="translate(174,96)"/>
<path d="M0 0 C5.94 0 11.88 0 18 0 C18 1.98 18 3.96 18 6 C14.04 6 10.08 6 6 6 C6 7.98 6 9.96 6 12 C7.98 12 9.96 12 12 12 C12 13.98 12 15.96 12 18 C8.04 18 4.08 18 0 18 C0 12.06 0 6.12 0 0 Z " fill="#010101" transform="translate(48,78)"/>
<path d="M0 0 C1.98 0 3.96 0 6 0 C6 1.98 6 3.96 6 6 C7.98 6 9.96 6 12 6 C12 9.96 12 13.92 12 18 C8.04 18 4.08 18 0 18 C0 16.02 0 14.04 0 12 C-1.98 12 -3.96 12 -6 12 C-6 10.02 -6 8.04 -6 6 C-4.02 6 -2.04 6 0 6 C0 4.02 0 2.04 0 0 Z " fill="#010101" transform="translate(84,18)"/>
<path d="M0 0 C2 1 2 1 3 3 C3.66 3 4.32 3 5 3 C4.50944794 9.49981475 4.50944794 9.49981475 2.28125 11.6875 C-0.35695184 13.20536955 -2.22748731 13.48865048 -5.25 13.6875 C-6.14203125 13.75324219 -7.0340625 13.81898438 -7.953125 13.88671875 C-8.62859375 13.92410156 -9.3040625 13.96148437 -10 14 C-10.33 13.34 -10.66 12.68 -11 12 C-11.99 12.33 -12.98 12.66 -14 13 C-14.33 14.32 -14.66 15.64 -15 17 C-15.99 14.03 -16.98 11.06 -18 8 C-19.32 8 -20.64 8 -22 8 C-22 7.34 -22 6.68 -22 6 C-19.525 6.495 -19.525 6.495 -17 7 C-16.8453125 6.071875 -16.8453125 6.071875 -16.6875 5.125 C-16 3 -16 3 -13 1 C-12.67 2.32 -12.34 3.64 -12 5 C-11.67 4.34 -11.34 3.68 -11 3 C-10.34 3 -9.68 3 -9 3 C-8.67 4.32 -8.34 5.64 -8 7 C-7.34 7 -6.68 7 -6 7 C-6 6.01 -6 5.02 -6 4 C-4.02 3.34 -2.04 2.68 0 2 C-0.99 1.67 -1.98 1.34 -3 1 C-2.01 0.67 -1.02 0.34 0 0 Z " fill="#7C8D7D" transform="translate(131,127)"/>
<path d="M0 0 C3.96 0 7.92 0 12 0 C12 3.96 12 7.92 12 12 C10.02 12 8.04 12 6 12 C6 13.98 6 15.96 6 18 C4.02 18 2.04 18 0 18 C0 12.06 0 6.12 0 0 Z " fill="#FEFEFE" transform="translate(204,216)"/>
<path d="M0 0 C1.98 0 3.96 0 6 0 C6 1.98 6 3.96 6 6 C7.98 6 9.96 6 12 6 C12 7.98 12 9.96 12 12 C4.08 12 -3.84 12 -12 12 C-12 10.02 -12 8.04 -12 6 C-8.04 6 -4.08 6 0 6 C0 4.02 0 2.04 0 0 Z " fill="#010101" transform="translate(30,180)"/>
<path d="M0 0 C3.96 0 7.92 0 12 0 C12 3.96 12 7.92 12 12 C13.98 12 15.96 12 18 12 C18 13.98 18 15.96 18 18 C14.04 18 10.08 18 6 18 C6 14.04 6 10.08 6 6 C4.02 6 2.04 6 0 6 C0 4.02 0 2.04 0 0 Z " fill="#FEFEFE" transform="translate(174,168)"/>
<path d="M0 0 C5.94 0 11.88 0 18 0 C18 3.96 18 7.92 18 12 C14.04 12 10.08 12 6 12 C6 10.02 6 8.04 6 6 C4.02 6 2.04 6 0 6 C0 4.02 0 2.04 0 0 Z " fill="#FDFDFD" transform="translate(72,150)"/>
<path d="M0 0 C3.96 0 7.92 0 12 0 C12 3.96 12 7.92 12 12 C10.02 12 8.04 12 6 12 C6 13.98 6 15.96 6 18 C4.02 18 2.04 18 0 18 C0 12.06 0 6.12 0 0 Z " fill="#000000" transform="translate(192,138)"/>
<path d="M0 0 C1.98 0 3.96 0 6 0 C6 1.98 6 3.96 6 6 C7.98 6 9.96 6 12 6 C12 7.98 12 9.96 12 12 C13.98 12 15.96 12 18 12 C18 13.32 18 14.64 18 16 C12.06 16 6.12 16 0 16 C0 10.72 0 5.44 0 0 Z " fill="#0B0B0B" transform="translate(114,84)"/>
<path d="M0 0 C5.28 0 10.56 0 16 0 C16 1.98 16 3.96 16 6 C12.7 6 9.4 6 6 6 C6 7.98 6 9.96 6 12 C2.04 12 -1.92 12 -6 12 C-6 10.02 -6 8.04 -6 6 C-4.02 6 -2.04 6 0 6 C0 4.02 0 2.04 0 0 Z " fill="#040404" transform="translate(84,114)"/>
<path d="M0 0 C5.94 0 11.88 0 18 0 C18 1.98 18 3.96 18 6 C14.04 6 10.08 6 6 6 C6 7.98 6 9.96 6 12 C4.02 12 2.04 12 0 12 C0 8.04 0 4.08 0 0 Z " fill="#FEFEFE" transform="translate(42,168)"/>
<path d="M0 0 C5.94 0 11.88 0 18 0 C18 1.98 18 3.96 18 6 C16.02 6 14.04 6 12 6 C12 7.98 12 9.96 12 12 C10.02 12 8.04 12 6 12 C6 10.02 6 8.04 6 6 C4.02 6 2.04 6 0 6 C0 4.02 0 2.04 0 0 Z " fill="#FDFDFD" transform="translate(204,108)"/>
<path d="M0 0 C3.96 0 7.92 0 12 0 C12 3.96 12 7.92 12 12 C8.04 12 4.08 12 0 12 C0 8.04 0 4.08 0 0 Z " fill="#FEFEFE" transform="translate(186,102)"/>
<path d="M0 0 C1.98 0 3.96 0 6 0 C6 1.98 6 3.96 6 6 C7.98 6 9.96 6 12 6 C12 7.98 12 9.96 12 12 C10.02 12 8.04 12 6 12 C6 13.98 6 15.96 6 18 C4.02 18 2.04 18 0 18 C0 12.06 0 6.12 0 0 Z " fill="#FDFDFD" transform="translate(150,78)"/>
<path d="M0 0 C5.94 0 11.88 0 18 0 C18 1.98 18 3.96 18 6 C16.02 6 14.04 6 12 6 C12 7.98 12 9.96 12 12 C10.02 12 8.04 12 6 12 C6 10.02 6 8.04 6 6 C4.02 6 2.04 6 0 6 C0 4.02 0 2.04 0 0 Z " fill="#FDFDFD" transform="translate(180,72)"/>
<path d="M0 0 C0.33 0 0.66 0 1 0 C1.55353075 11.52164009 1.55353075 11.52164009 -2 17 C-1.34 17 -0.68 17 0 17 C0.28875 17.639375 0.5775 18.27875 0.875 18.9375 C1.82823451 21.15206079 1.82823451 21.15206079 4 22 C4 22.99 4 23.98 4 25 C2.35 25.33 0.7 25.66 -1 26 C-1.33 26.99 -1.66 27.98 -2 29 C-2.99 29 -3.98 29 -5 29 C-5.33 27.68 -5.66 26.36 -6 25 C-6.66 25 -7.32 25 -8 25 C-8.25 21.75 -8.25 21.75 -8 18 C-6.71182656 16.62298702 -5.37195574 15.29355827 -4 14 C-1.78402595 9.53914788 -0.6170002 4.93600156 0 0 Z " fill="#414341" transform="translate(148,111)"/>
<path d="M0 0 C0.99 0.495 0.99 0.495 2 1 C4.98763355 1.15733249 7.95541151 1.25861415 10.9453125 1.31640625 C12.27283035 1.3475779 12.27283035 1.3475779 13.62716675 1.37937927 C16.45969741 1.44486598 19.29232225 1.50375562 22.125 1.5625 C24.04297857 1.60568606 25.96094754 1.64930037 27.87890625 1.69335938 C32.58584051 1.80054647 37.29286967 1.9018164 42 2 C42 2.99 42 3.98 42 5 C36.03325384 6.32594359 30.07416385 6.0884587 24 6 C24 5.34 24 4.68 24 4 C18.06 4 12.12 4 6 4 C6 4.66 6 5.32 6 6 C4.02 6 2.04 6 0 6 C0 4.02 0 2.04 0 0 Z " fill="#D0D0D0" transform="translate(102,156)"/>
<path d="M0 0 C-0.99 0.66 -1.98 1.32 -3 2 C-3.69626498 4.60952509 -3.69626498 4.60952509 -4 7.625 C-4.73938506 12.82575931 -5.95775506 17.17287559 -8 22 C-9.65 22 -11.3 22 -13 22 C-12.505 20.515 -12.505 20.515 -12 19 C-11.77281504 16.43365139 -11.58391816 13.88321893 -11.4375 11.3125 C-11.39431641 10.61060547 -11.35113281 9.90871094 -11.30664062 9.18554688 C-11.2008264 7.45724794 -11.09993419 5.7286489 -11 4 C-10.34 4 -9.68 4 -9 4 C-9 3.34 -9 2.68 -9 2 C-5.86501708 0.14223235 -3.62528568 -0.20140476 0 0 Z " fill="#565756" transform="translate(153,103)"/>
<path d="M0 0 C1.98 0 3.96 0 6 0 C6 1.98 6 3.96 6 6 C7.98 6 9.96 6 12 6 C12 7.98 12 9.96 12 12 C8.04 12 4.08 12 0 12 C0 8.04 0 4.08 0 0 Z " fill="#FDFDFD" transform="translate(132,222)"/>
<path d="M0 0 C1.98 0 3.96 0 6 0 C6 5.94 6 11.88 6 18 C4.02 18 2.04 18 0 18 C0 12.06 0 6.12 0 0 Z " fill="#FEFEFE" transform="translate(84,192)"/>
<path d="M0 0 C3.96 0 7.92 0 12 0 C12 3.96 12 7.92 12 12 C10.02 12 8.04 12 6 12 C6 10.02 6 8.04 6 6 C4.02 6 2.04 6 0 6 C0 4.02 0 2.04 0 0 Z " fill="#010101" transform="translate(228,180)"/>
<path d="M0 0 C1.98 0 3.96 0 6 0 C6 5.94 6 11.88 6 18 C4.02 18 2.04 18 0 18 C0 12.06 0 6.12 0 0 Z " fill="#000000" transform="translate(180,138)"/>
<path d="M0 0 C1.98 0 3.96 0 6 0 C6 3.96 6 7.92 6 12 C2.04 12 -1.92 12 -6 12 C-6 10.02 -6 8.04 -6 6 C-4.02 6 -2.04 6 0 6 C0 4.02 0 2.04 0 0 Z " fill="#010101" transform="translate(210,120)"/>
<path d="M0 0 C1.98 0 3.96 0 6 0 C6 3.96 6 7.92 6 12 C2.04 12 -1.92 12 -6 12 C-6 10.02 -6 8.04 -6 6 C-4.02 6 -2.04 6 0 6 C0 4.02 0 2.04 0 0 Z " fill="#FDFDFD" transform="translate(30,102)"/>
<path d="M0 0 C1.98 0 3.96 0 6 0 C6 1.98 6 3.96 6 6 C7.98 6 9.96 6 12 6 C12 7.98 12 9.96 12 12 C8.04 12 4.08 12 0 12 C0 8.04 0 4.08 0 0 Z " fill="#000000" transform="translate(18,72)"/>
<path d="M0 0 C5.94 0 11.88 0 18 0 C18 1.98 18 3.96 18 6 C12.06 6 6.12 6 0 6 C0 4.02 0 2.04 0 0 Z " fill="#000000" transform="translate(180,66)"/>
<path d="M0 0 C1.98 0 3.96 0 6 0 C6 1.98 6 3.96 6 6 C7.98 6 9.96 6 12 6 C12 7.98 12 9.96 12 12 C8.04 12 4.08 12 0 12 C0 8.04 0 4.08 0 0 Z " fill="#FDFDFD" transform="translate(114,54)"/>
<path d="M0 0 C1.98 0 3.96 0 6 0 C6 3.96 6 7.92 6 12 C2.04 12 -1.92 12 -6 12 C-6 10.02 -6 8.04 -6 6 C-4.02 6 -2.04 6 0 6 C0 4.02 0 2.04 0 0 Z " fill="#FDFDFD" transform="translate(84,18)"/>
<path d="M0 0 C0.66 0.33 1.32 0.66 2 1 C2 1.66 2 2.32 2 3 C6.95 3.33 11.9 3.66 17 4 C17 6.97 17 9.94 17 13 C16.01 13 15.02 13 14 13 C13.87625 12.360625 13.7525 11.72125 13.625 11.0625 C13.41875 10.381875 13.2125 9.70125 13 9 C12.34 8.67 11.68 8.34 11 8 C11 7.34 11 6.68 11 6 C8.03 5.505 8.03 5.505 5 5 C5 6.65 5 8.3 5 10 C0.25 8.125 0.25 8.125 -2 7 C-2 7.66 -2 8.32 -2 9 C-2.66 9 -3.32 9 -4 9 C-3.42415568 6.61435923 -2.77772405 4.33317216 -2 2 C-1.34 2 -0.68 2 0 2 C0 1.34 0 0.68 0 0 Z " fill="#2E312F" transform="translate(119,138)"/>
<path d="M0 0 C3.3 0 6.6 0 10 0 C9.01 2.64 8.02 5.28 7 8 C7.66 8 8.32 8 9 8 C9 8.66 9 9.32 9 10 C9.66 10 10.32 10 11 10 C11 10.66 11 11.32 11 12 C10.01 12.33 9.02 12.66 8 13 C8.309375 13.763125 8.61875 14.52625 8.9375 15.3125 C9.67893593 17.18789677 10.36228217 19.08684652 11 21 C11.66 21.33 12.32 21.66 13 22 C12.67 23.98 12.34 25.96 12 28 C11.34 28 10.68 28 10 28 C10 27.01 10 26.02 10 25 C8.68 25 7.36 25 6 25 C6 18.07 6 11.14 6 4 C3.7763932 2.7018576 3.7763932 2.7018576 0 3 C-0.99 3.495 -0.99 3.495 -2 4 C-1.34 2.68 -0.68 1.36 0 0 Z " fill="#343434" transform="translate(105,103)"/>
<path d="M0 0 C2 1 2 1 3 3 C3.66 3 4.32 3 5 3 C4.51470588 9.43014706 4.51470588 9.43014706 2.25 11.9375 C-0.35402628 13.16717908 -2.15312226 13.23723981 -5 13 C-5.66 11.35 -6.32 9.7 -7 8 C-6.34 8 -5.68 8 -5 8 C-5 6.68 -5 5.36 -5 4 C-3.35 3.34 -1.7 2.68 0 2 C-0.99 1.67 -1.98 1.34 -3 1 C-2.01 0.67 -1.02 0.34 0 0 Z " fill="#595B5B" transform="translate(131,127)"/>
<path d="M0 0 C6.27 0 12.54 0 19 0 C17.02 0.99 17.02 0.99 15 2 C15 2.66 15 3.32 15 4 C14.34 4 13.68 4 13 4 C13 5.65 13 7.3 13 9 C12.67 8.34 12.34 7.68 12 7 C11.01 6.67 10.02 6.34 9 6 C9 5.34 9 4.68 9 4 C4.45194365 3.82164485 1.1205746 4.00214565 -3 6 C-2 4 -1 2 0 0 Z " fill="#434343" transform="translate(129,103)"/>
<path d="M0 0 C0.33 0 0.66 0 1 0 C1.06058594 1.25296875 1.12117188 2.5059375 1.18359375 3.796875 C1.26802256 5.44792724 1.35266939 7.09896835 1.4375 8.75 C1.47681641 9.575 1.51613281 10.4 1.55664062 11.25 C1.59853516 12.04921875 1.64042969 12.8484375 1.68359375 13.671875 C1.72025146 14.4050293 1.75690918 15.13818359 1.79467773 15.89355469 C2.00114785 18.01177605 2.43132086 19.9519456 3 22 C2.01 22 1.02 22 0 22 C-0.33 20.35 -0.66 18.7 -1 17 C-2.32 17 -3.64 17 -5 17 C-5 15.02 -5 13.04 -5 11 C-3.68 11 -2.36 11 -1 11 C-1.01160156 10.28972656 -1.02320312 9.57945312 -1.03515625 8.84765625 C-1.04869141 7.46900391 -1.04869141 7.46900391 -1.0625 6.0625 C-1.07410156 5.14597656 -1.08570312 4.22945312 -1.09765625 3.28515625 C-1 1 -1 1 0 0 Z " fill="#FAFAFA" transform="translate(101,133)"/>
<path d="M0 0 C3.96 0 7.92 0 12 0 C12 1.98 12 3.96 12 6 C8.04 6 4.08 6 0 6 C0 4.02 0 2.04 0 0 Z " fill="#FEFEFE" transform="translate(108,222)"/>
<path d="M0 0 C3.96 0 7.92 0 12 0 C12 1.98 12 3.96 12 6 C8.04 6 4.08 6 0 6 C0 4.02 0 2.04 0 0 Z " fill="#FDFDFD" transform="translate(186,216)"/>
<path d="M0 0 C1.98 0 3.96 0 6 0 C6 3.96 6 7.92 6 12 C4.02 12 2.04 12 0 12 C0 8.04 0 4.08 0 0 Z " fill="#000000" transform="translate(168,216)"/>
<path d="M0 0 C1.98 0 3.96 0 6 0 C6 3.96 6 7.92 6 12 C4.02 12 2.04 12 0 12 C0 8.04 0 4.08 0 0 Z " fill="#FEFEFE" transform="translate(96,192)"/>
<path d="M0 0 C1.98 0 3.96 0 6 0 C6 3.96 6 7.92 6 12 C4.02 12 2.04 12 0 12 C0 8.04 0 4.08 0 0 Z " fill="#FDFDFD" transform="translate(72,186)"/>
<path d="M0 0 C1.98 0 3.96 0 6 0 C6 3.96 6 7.92 6 12 C4.02 12 2.04 12 0 12 C0 8.04 0 4.08 0 0 Z " fill="#010101" transform="translate(174,174)"/>
<path d="M0 0 C3.96 0 7.92 0 12 0 C12 1.98 12 3.96 12 6 C8.04 6 4.08 6 0 6 C0 4.02 0 2.04 0 0 Z " fill="#000000" transform="translate(48,174)"/>
<path d="M0 0 C1.98 0 3.96 0 6 0 C6 3.96 6 7.92 6 12 C4.02 12 2.04 12 0 12 C0 8.04 0 4.08 0 0 Z " fill="#FCFCFC" transform="translate(156,156)"/>
<path d="M0 0 C1.98 0 3.96 0 6 0 C6 3.96 6 7.92 6 12 C4.02 12 2.04 12 0 12 C0 8.04 0 4.08 0 0 Z " fill="#FEFEFE" transform="translate(36,156)"/>
<path d="M0 0 C3.96 0 7.92 0 12 0 C12 1.98 12 3.96 12 6 C8.04 6 4.08 6 0 6 C0 4.02 0 2.04 0 0 Z " fill="#010101" transform="translate(210,144)"/>
<path d="M0 0 C1.98 0 3.96 0 6 0 C6 3.96 6 7.92 6 12 C4.02 12 2.04 12 0 12 C0 8.04 0 4.08 0 0 Z " fill="#010101" transform="translate(36,102)"/>
<path d="M0 0 C3.96 0 7.92 0 12 0 C12 1.98 12 3.96 12 6 C8.04 6 4.08 6 0 6 C0 4.02 0 2.04 0 0 Z " fill="#FEFEFE" transform="translate(198,96)"/>
<path d="M0 0 C3.96 0 7.92 0 12 0 C12 1.98 12 3.96 12 6 C8.04 6 4.08 6 0 6 C0 4.02 0 2.04 0 0 Z " fill="#010101" transform="translate(186,96)"/>
<path d="M0 0 C1.98 0 3.96 0 6 0 C6 3.96 6 7.92 6 12 C4.02 12 2.04 12 0 12 C0 8.04 0 4.08 0 0 Z " fill="#000000" transform="translate(234,84)"/>
<path d="M0 0 C3.96 0 7.92 0 12 0 C12 1.98 12 3.96 12 6 C8.04 6 4.08 6 0 6 C0 4.02 0 2.04 0 0 Z " fill="#000000" transform="translate(204,66)"/>
<path d="M0 0 C1.98 0 3.96 0 6 0 C6 3.96 6 7.92 6 12 C4.02 12 2.04 12 0 12 C0 8.04 0 4.08 0 0 Z " fill="#FEFEFE" transform="translate(96,54)"/>
<path d="M0 0 C1.98 0 3.96 0 6 0 C6 3.96 6 7.92 6 12 C4.02 12 2.04 12 0 12 C0 8.04 0 4.08 0 0 Z " fill="#000000" transform="translate(126,48)"/>
<path d="M0 0 C0.99 0.33 1.98 0.66 3 1 C2.34 3.64 1.68 6.28 1 9 C1.99 9.33 2.98 9.66 4 10 C3.34 11.98 2.68 13.96 2 16 C1.34 16 0.68 16 0 16 C-0.33 14.68 -0.66 13.36 -1 12 C-1.66 12 -2.32 12 -3 12 C-3.33 13.98 -3.66 15.96 -4 18 C-4.33 18 -4.66 18 -5 18 C-5.57734471 11.64920821 -4.43763972 8.20039988 -1.09375 2.78515625 C0.0870718 1.20681617 0.0870718 1.20681617 0 0 Z " fill="#303831" transform="translate(123,118)"/>
<path d="M0 0 C-0.639375 0.2475 -1.27875 0.495 -1.9375 0.75 C-4.16676943 1.79331795 -4.16676943 1.79331795 -4.625 3.9375 C-4.74875 4.618125 -4.8725 5.29875 -5 6 C-5.99 7.485 -5.99 7.485 -7 9 C-5.68 9.33 -4.36 9.66 -3 10 C-3 9.34 -3 8.68 -3 8 C-2.34 8.33 -1.68 8.66 -1 9 C-2.65 11.64 -4.3 14.28 -6 17 C-6.33 16.01 -6.66 15.02 -7 14 C-7.99 13.67 -8.98 13.34 -10 13 C-10.33 11.35 -10.66 9.7 -11 8 C-10.01 7.67 -9.02 7.34 -8 7 C-7.9071875 5.576875 -7.9071875 5.576875 -7.8125 4.125 C-7 1 -7 1 -4.5625 -0.4375 C-2 -1 -2 -1 0 0 Z " fill="#636A64" transform="translate(125,111)"/>
<path d="M0 0 C0.66 0 1.32 0 2 0 C3.38232443 1.62626404 4.71937515 3.2925002 6 5 C4.35 7.97 2.7 10.94 1 14 C0.01 13.67 -0.98 13.34 -2 13 C-2.33 12.34 -2.66 11.68 -3 11 C-2.690625 10.236875 -2.38125 9.47375 -2.0625 8.6875 C-0.95439148 5.88463728 -0.91741638 3.97301014 -1 1 C-0.67 0.67 -0.34 0.34 0 0 Z " fill="#333833" transform="translate(140,136)"/>
<path d="M0 0 C0 0.66 0 1.32 0 2 C-8.91 2 -17.82 2 -27 2 C-27.33 1.34 -27.66 0.68 -28 0 C-23.89621612 -0.19660714 -19.79196562 -0.3807276 -15.6875 -0.5625 C-14.52025391 -0.61857422 -13.35300781 -0.67464844 -12.15039062 -0.73242188 C-11.03212891 -0.78076172 -9.91386719 -0.82910156 -8.76171875 -0.87890625 C-7.2142395 -0.94960327 -7.2142395 -0.94960327 -5.63549805 -1.02172852 C-3 -1 -3 -1 0 0 Z " fill="#FBFBFB" transform="translate(154,156)"/>
<path d="M0 0 C1.2065625 0.0309375 1.2065625 0.0309375 2.4375 0.0625 C3.59587626 4.11681692 3.27441257 6.28062119 1.4375 10.0625 C0.7775 10.0625 0.1175 10.0625 -0.5625 10.0625 C-0.5625 8.4125 -0.5625 6.7625 -0.5625 5.0625 C-2.480625 5.124375 -2.480625 5.124375 -4.4375 5.1875 C-6.6171875 5.2578125 -6.6171875 5.2578125 -8.5625 5.0625 C-9.2225 4.4025 -9.8825 3.7425 -10.5625 3.0625 C-9.428125 2.753125 -8.29375 2.44375 -7.125 2.125 C0 0 0 0 0 0 Z " fill="#828B82" transform="translate(136.5625,136.9375)"/>
<path d="M0 0 C0.66 0 1.32 0 2 0 C2.33 1.32 2.66 2.64 3 4 C3.66 4 4.32 4 5 4 C5.33 3.01 5.66 2.02 6 1 C5.814375 1.721875 5.62875 2.44375 5.4375 3.1875 C4.98004693 6.12826973 5.26483643 8.14103058 6 11 C3.6875 11.3125 3.6875 11.3125 1 11 C-0.9375 8.875 -0.9375 8.875 -2 6 C-1.1875 2.6875 -1.1875 2.6875 0 0 Z " fill="#646664" transform="translate(120,130)"/>
<path d="M0 0 C1.65 0.33 3.3 0.66 5 1 C5 4.63 5 8.26 5 12 C3.68 12.33 2.36 12.66 1 13 C-0.09658936 9.71023192 0.20046862 8.28696233 1 5 C0.01 5.33 -0.98 5.66 -2 6 C-2.33 5.01 -2.66 4.02 -3 3 C-1.8125 1.4375 -1.8125 1.4375 0 0 Z " fill="#657066" transform="translate(135,125)"/>
<path d="M0 0 C1.32 0 2.64 0 4 0 C4 3.96 4 7.92 4 12 C2.02 12 0.04 12 -2 12 C-1.67 11.34 -1.34 10.68 -1 10 C-0.77377919 8.29636178 -0.59111527 6.58671299 -0.4375 4.875 C-0.35371094 3.96492187 -0.26992187 3.05484375 -0.18359375 2.1171875 C-0.12300781 1.41851562 -0.06242188 0.71984375 0 0 Z " fill="#121212" transform="translate(158,144)"/>
<path d="M0 0 C1.32 0 2.64 0 4 0 C4 3.96 4 7.92 4 12 C2.68 12 1.36 12 0 12 C0 8.04 0 4.08 0 0 Z " fill="#1C1C1C" transform="translate(96,132)"/>
<path d="M0 0 C2.97 0 5.94 0 9 0 C9 2.97 9 5.94 9 9 C8.01 9 7.02 9 6 9 C5.87625 8.360625 5.7525 7.72125 5.625 7.0625 C5.41875 6.381875 5.2125 5.70125 5 5 C4.34 4.67 3.68 4.34 3 4 C3 3.01 3 2.02 3 1 C2.01 0.67 1.02 0.34 0 0 Z " fill="#272B26" transform="translate(127,142)"/>
<path d="M0 0 C2.97 0.495 2.97 0.495 6 1 C6 1.66 6 2.32 6 3 C7.32 3.33 8.64 3.66 10 4 C9.67 4.99 9.34 5.98 9 7 C4.545 6.01 4.545 6.01 0 5 C0 3.35 0 1.7 0 0 Z " fill="#4C4C4B" transform="translate(124,143)"/>
<path d="M0 0 C1.98 0 3.96 0 6 0 C6 1.98 6 3.96 6 6 C4.02 6 2.04 6 0 6 C0 4.02 0 2.04 0 0 Z " fill="#010101" transform="translate(180,228)"/>
<path d="M0 0 C1.98 0 3.96 0 6 0 C6 1.98 6 3.96 6 6 C4.02 6 2.04 6 0 6 C0 4.02 0 2.04 0 0 Z " fill="#010101" transform="translate(66,228)"/>
<path d="M0 0 C1.98 0 3.96 0 6 0 C6 1.98 6 3.96 6 6 C4.02 6 2.04 6 0 6 C0 4.02 0 2.04 0 0 Z " fill="#FDFDFD" transform="translate(222,222)"/>
<path d="M0 0 C1.98 0 3.96 0 6 0 C6 1.98 6 3.96 6 6 C4.02 6 2.04 6 0 6 C0 4.02 0 2.04 0 0 Z " fill="#010101" transform="translate(180,216)"/>
<path d="M0 0 C1.98 0 3.96 0 6 0 C6 1.98 6 3.96 6 6 C4.02 6 2.04 6 0 6 C0 4.02 0 2.04 0 0 Z " fill="#FDFDFD" transform="translate(120,216)"/>
<path d="M0 0 C1.98 0 3.96 0 6 0 C6 1.98 6 3.96 6 6 C4.02 6 2.04 6 0 6 C0 4.02 0 2.04 0 0 Z " fill="#FDFDFD" transform="translate(78,210)"/>
<path d="M0 0 C1.98 0 3.96 0 6 0 C6 1.98 6 3.96 6 6 C4.02 6 2.04 6 0 6 C0 4.02 0 2.04 0 0 Z " fill="#FDFDFD" transform="translate(216,204)"/>
<path d="M0 0 C1.98 0 3.96 0 6 0 C6 1.98 6 3.96 6 6 C4.02 6 2.04 6 0 6 C0 4.02 0 2.04 0 0 Z " fill="#FDFDFD" transform="translate(114,204)"/>
<path d="M0 0 C1.98 0 3.96 0 6 0 C6 1.98 6 3.96 6 6 C4.02 6 2.04 6 0 6 C0 4.02 0 2.04 0 0 Z " fill="#010101" transform="translate(198,198)"/>
<path d="M0 0 C1.98 0 3.96 0 6 0 C6 1.98 6 3.96 6 6 C4.02 6 2.04 6 0 6 C0 4.02 0 2.04 0 0 Z " fill="#010101" transform="translate(228,192)"/>
<path d="M0 0 C1.98 0 3.96 0 6 0 C6 1.98 6 3.96 6 6 C4.02 6 2.04 6 0 6 C0 4.02 0 2.04 0 0 Z " fill="#FDFDFD" transform="translate(150,180)"/>
<path d="M0 0 C1.98 0 3.96 0 6 0 C6 1.98 6 3.96 6 6 C4.02 6 2.04 6 0 6 C0 4.02 0 2.04 0 0 Z " fill="#FDFDFD" transform="translate(102,180)"/>
<path d="M0 0 C1.98 0 3.96 0 6 0 C6 1.98 6 3.96 6 6 C4.02 6 2.04 6 0 6 C0 4.02 0 2.04 0 0 Z " fill="#010101" transform="translate(42,180)"/>
<path d="M0 0 C1.98 0 3.96 0 6 0 C6 1.98 6 3.96 6 6 C4.02 6 2.04 6 0 6 C0 4.02 0 2.04 0 0 Z " fill="#FDFDFD" transform="translate(36,180)"/>
<path d="M0 0 C1.98 0 3.96 0 6 0 C6 1.98 6 3.96 6 6 C4.02 6 2.04 6 0 6 C0 4.02 0 2.04 0 0 Z " fill="#010101" transform="translate(60,168)"/>
<path d="M0 0 C1.98 0 3.96 0 6 0 C6 1.98 6 3.96 6 6 C4.02 6 2.04 6 0 6 C0 4.02 0 2.04 0 0 Z " fill="#010101" transform="translate(18,168)"/>
<path d="M0 0 C1.98 0 3.96 0 6 0 C6 1.98 6 3.96 6 6 C4.02 6 2.04 6 0 6 C0 4.02 0 2.04 0 0 Z " fill="#FDFDFD" transform="translate(204,162)"/>
<path d="M0 0 C1.98 0 3.96 0 6 0 C6 1.98 6 3.96 6 6 C4.02 6 2.04 6 0 6 C0 4.02 0 2.04 0 0 Z " fill="#010101" transform="translate(114,162)"/>
<path d="M0 0 C3.96 0 7.92 0 12 0 C12 0.99 12 1.98 12 3 C8.04 3 4.08 3 0 3 C0 2.01 0 1.02 0 0 Z " fill="#020201" transform="translate(126,159)"/>
<path d="M0 0 C1.98 0 3.96 0 6 0 C6 1.98 6 3.96 6 6 C4.02 6 2.04 6 0 6 C0 4.02 0 2.04 0 0 Z " fill="#FDFDFD" transform="translate(228,156)"/>
<path d="M0 0 C1.98 0 3.96 0 6 0 C6 1.98 6 3.96 6 6 C4.02 6 2.04 6 0 6 C0 4.02 0 2.04 0 0 Z " fill="#010101" transform="translate(204,156)"/>
<path d="M0 0 C1.98 0 3.96 0 6 0 C6 1.98 6 3.96 6 6 C4.02 6 2.04 6 0 6 C0 4.02 0 2.04 0 0 Z " fill="#010101" transform="translate(168,144)"/>
<path d="M0 0 C1.98 0 3.96 0 6 0 C6 1.98 6 3.96 6 6 C4.02 6 2.04 6 0 6 C0 4.02 0 2.04 0 0 Z " fill="#010101" transform="translate(162,138)"/>
<path d="M0 0 C1.98 0 3.96 0 6 0 C6 1.98 6 3.96 6 6 C4.02 6 2.04 6 0 6 C0 4.02 0 2.04 0 0 Z " fill="#010101" transform="translate(42,138)"/>
<path d="M0 0 C1.98 0 3.96 0 6 0 C6 1.98 6 3.96 6 6 C4.02 6 2.04 6 0 6 C0 4.02 0 2.04 0 0 Z " fill="#FDFDFD" transform="translate(54,132)"/>
<path d="M0 0 C1.98 0 3.96 0 6 0 C6 1.98 6 3.96 6 6 C4.02 6 2.04 6 0 6 C0 4.02 0 2.04 0 0 Z " fill="#FDFDFD" transform="translate(42,132)"/>
<path d="M0 0 C1.98 0 3.96 0 6 0 C6 1.98 6 3.96 6 6 C4.02 6 2.04 6 0 6 C0 4.02 0 2.04 0 0 Z " fill="#010101" transform="translate(90,126)"/>
<path d="M0 0 C1.98 0 3.96 0 6 0 C6 1.98 6 3.96 6 6 C4.02 6 2.04 6 0 6 C0 4.02 0 2.04 0 0 Z " fill="#010101" transform="translate(234,114)"/>
<path d="M0 0 C1.98 0 3.96 0 6 0 C6 1.98 6 3.96 6 6 C4.02 6 2.04 6 0 6 C0 4.02 0 2.04 0 0 Z " fill="#010101" transform="translate(54,114)"/>
<path d="M0 0 C1.98 0 3.96 0 6 0 C6 1.98 6 3.96 6 6 C4.02 6 2.04 6 0 6 C0 4.02 0 2.04 0 0 Z " fill="#010101" transform="translate(42,114)"/>
<path d="M0 0 C1.98 0 3.96 0 6 0 C6 1.98 6 3.96 6 6 C4.02 6 2.04 6 0 6 C0 4.02 0 2.04 0 0 Z " fill="#010101" transform="translate(24,102)"/>
<path d="M0 0 C1.98 0 3.96 0 6 0 C6 1.98 6 3.96 6 6 C4.02 6 2.04 6 0 6 C0 4.02 0 2.04 0 0 Z " fill="#010101" transform="translate(30,96)"/>
<path d="M0 0 C1.98 0 3.96 0 6 0 C6 1.98 6 3.96 6 6 C4.02 6 2.04 6 0 6 C0 4.02 0 2.04 0 0 Z " fill="#FDFDFD" transform="translate(126,90)"/>
<path d="M0 0 C1.98 0 3.96 0 6 0 C6 1.98 6 3.96 6 6 C4.02 6 2.04 6 0 6 C0 4.02 0 2.04 0 0 Z " fill="#010101" transform="translate(54,90)"/>
<path d="M0 0 C1.98 0 3.96 0 6 0 C6 1.98 6 3.96 6 6 C4.02 6 2.04 6 0 6 C0 4.02 0 2.04 0 0 Z " fill="#FDFDFD" transform="translate(48,90)"/>
<path d="M0 0 C1.98 0 3.96 0 6 0 C6 1.98 6 3.96 6 6 C4.02 6 2.04 6 0 6 C0 4.02 0 2.04 0 0 Z " fill="#010101" transform="translate(18,90)"/>
<path d="M0 0 C1.98 0 3.96 0 6 0 C6 1.98 6 3.96 6 6 C4.02 6 2.04 6 0 6 C0 4.02 0 2.04 0 0 Z " fill="#FDFDFD" transform="translate(138,84)"/>
<path d="M0 0 C1.98 0 3.96 0 6 0 C6 1.98 6 3.96 6 6 C4.02 6 2.04 6 0 6 C0 4.02 0 2.04 0 0 Z " fill="#FDFDFD" transform="translate(120,84)"/>
<path d="M0 0 C1.98 0 3.96 0 6 0 C6 1.98 6 3.96 6 6 C4.02 6 2.04 6 0 6 C0 4.02 0 2.04 0 0 Z " fill="#010101" transform="translate(102,84)"/>
<path d="M0 0 C1.98 0 3.96 0 6 0 C6 1.98 6 3.96 6 6 C4.02 6 2.04 6 0 6 C0 4.02 0 2.04 0 0 Z " fill="#010101" transform="translate(30,84)"/>
<path d="M0 0 C1.98 0 3.96 0 6 0 C6 1.98 6 3.96 6 6 C4.02 6 2.04 6 0 6 C0 4.02 0 2.04 0 0 Z " fill="#FDFDFD" transform="translate(114,78)"/>
<path d="M0 0 C1.98 0 3.96 0 6 0 C6 1.98 6 3.96 6 6 C4.02 6 2.04 6 0 6 C0 4.02 0 2.04 0 0 Z " fill="#FDFDFD" transform="translate(102,78)"/>
<path d="M0 0 C1.98 0 3.96 0 6 0 C6 1.98 6 3.96 6 6 C4.02 6 2.04 6 0 6 C0 4.02 0 2.04 0 0 Z " fill="#010101" transform="translate(96,78)"/>
<path d="M0 0 C1.98 0 3.96 0 6 0 C6 1.98 6 3.96 6 6 C4.02 6 2.04 6 0 6 C0 4.02 0 2.04 0 0 Z " fill="#FDFDFD" transform="translate(90,78)"/>
<path d="M0 0 C1.98 0 3.96 0 6 0 C6 1.98 6 3.96 6 6 C4.02 6 2.04 6 0 6 C0 4.02 0 2.04 0 0 Z " fill="#010101" transform="translate(36,78)"/>
<path d="M0 0 C1.98 0 3.96 0 6 0 C6 1.98 6 3.96 6 6 C4.02 6 2.04 6 0 6 C0 4.02 0 2.04 0 0 Z " fill="#010101" transform="translate(198,72)"/>
<path d="M0 0 C1.98 0 3.96 0 6 0 C6 1.98 6 3.96 6 6 C4.02 6 2.04 6 0 6 C0 4.02 0 2.04 0 0 Z " fill="#FDFDFD" transform="translate(96,72)"/>
<path d="M0 0 C1.98 0 3.96 0 6 0 C6 1.98 6 3.96 6 6 C4.02 6 2.04 6 0 6 C0 4.02 0 2.04 0 0 Z " fill="#010101" transform="translate(90,72)"/>
<path d="M0 0 C1.98 0 3.96 0 6 0 C6 1.98 6 3.96 6 6 C4.02 6 2.04 6 0 6 C0 4.02 0 2.04 0 0 Z " fill="#FDFDFD" transform="translate(84,72)"/>
<path d="M0 0 C1.98 0 3.96 0 6 0 C6 1.98 6 3.96 6 6 C4.02 6 2.04 6 0 6 C0 4.02 0 2.04 0 0 Z " fill="#010101" transform="translate(30,72)"/>
<path d="M0 0 C1.98 0 3.96 0 6 0 C6 1.98 6 3.96 6 6 C4.02 6 2.04 6 0 6 C0 4.02 0 2.04 0 0 Z " fill="#FDFDFD" transform="translate(150,66)"/>
<path d="M0 0 C1.98 0 3.96 0 6 0 C6 1.98 6 3.96 6 6 C4.02 6 2.04 6 0 6 C0 4.02 0 2.04 0 0 Z " fill="#FDFDFD" transform="translate(90,66)"/>
<path d="M0 0 C1.98 0 3.96 0 6 0 C6 1.98 6 3.96 6 6 C4.02 6 2.04 6 0 6 C0 4.02 0 2.04 0 0 Z " fill="#010101" transform="translate(54,66)"/>
<path d="M0 0 C1.98 0 3.96 0 6 0 C6 1.98 6 3.96 6 6 C4.02 6 2.04 6 0 6 C0 4.02 0 2.04 0 0 Z " fill="#010101" transform="translate(42,66)"/>
<path d="M0 0 C1.98 0 3.96 0 6 0 C6 1.98 6 3.96 6 6 C4.02 6 2.04 6 0 6 C0 4.02 0 2.04 0 0 Z " fill="#010101" transform="translate(24,66)"/>
<path d="M0 0 C1.98 0 3.96 0 6 0 C6 1.98 6 3.96 6 6 C4.02 6 2.04 6 0 6 C0 4.02 0 2.04 0 0 Z " fill="#010101" transform="translate(120,60)"/>
<path d="M0 0 C1.98 0 3.96 0 6 0 C6 1.98 6 3.96 6 6 C4.02 6 2.04 6 0 6 C0 4.02 0 2.04 0 0 Z " fill="#FDFDFD" transform="translate(78,60)"/>
<path d="M0 0 C1.98 0 3.96 0 6 0 C6 1.98 6 3.96 6 6 C4.02 6 2.04 6 0 6 C0 4.02 0 2.04 0 0 Z " fill="#010101" transform="translate(174,54)"/>
<path d="M0 0 C1.98 0 3.96 0 6 0 C6 1.98 6 3.96 6 6 C4.02 6 2.04 6 0 6 C0 4.02 0 2.04 0 0 Z " fill="#010101" transform="translate(162,54)"/>
<path d="M0 0 C1.98 0 3.96 0 6 0 C6 1.98 6 3.96 6 6 C4.02 6 2.04 6 0 6 C0 4.02 0 2.04 0 0 Z " fill="#FDFDFD" transform="translate(144,54)"/>
<path d="M0 0 C1.98 0 3.96 0 6 0 C6 1.98 6 3.96 6 6 C4.02 6 2.04 6 0 6 C0 4.02 0 2.04 0 0 Z " fill="#010101" transform="translate(114,54)"/>
<path d="M0 0 C1.98 0 3.96 0 6 0 C6 1.98 6 3.96 6 6 C4.02 6 2.04 6 0 6 C0 4.02 0 2.04 0 0 Z " fill="#010101" transform="translate(78,54)"/>
<path d="M0 0 C1.98 0 3.96 0 6 0 C6 1.98 6 3.96 6 6 C4.02 6 2.04 6 0 6 C0 4.02 0 2.04 0 0 Z " fill="#010101" transform="translate(114,42)"/>
<path d="M0 0 C1.98 0 3.96 0 6 0 C6 1.98 6 3.96 6 6 C4.02 6 2.04 6 0 6 C0 4.02 0 2.04 0 0 Z " fill="#FDFDFD" transform="translate(114,36)"/>
<path d="M0 0 C1.98 0 3.96 0 6 0 C6 1.98 6 3.96 6 6 C4.02 6 2.04 6 0 6 C0 4.02 0 2.04 0 0 Z " fill="#010101" transform="translate(186,30)"/>
<path d="M0 0 C1.98 0 3.96 0 6 0 C6 1.98 6 3.96 6 6 C4.02 6 2.04 6 0 6 C0 4.02 0 2.04 0 0 Z " fill="#FDFDFD" transform="translate(168,30)"/>
<path d="M0 0 C1.98 0 3.96 0 6 0 C6 1.98 6 3.96 6 6 C4.02 6 2.04 6 0 6 C0 4.02 0 2.04 0 0 Z " fill="#010101" transform="translate(144,30)"/>
<path d="M0 0 C1.98 0 3.96 0 6 0 C6 1.98 6 3.96 6 6 C4.02 6 2.04 6 0 6 C0 4.02 0 2.04 0 0 Z " fill="#010101" transform="translate(66,30)"/>
<path d="M0 0 C1.98 0 3.96 0 6 0 C6 1.98 6 3.96 6 6 C4.02 6 2.04 6 0 6 C0 4.02 0 2.04 0 0 Z " fill="#010101" transform="translate(78,24)"/>
<path d="M0 0 C1.98 0 3.96 0 6 0 C6 1.98 6 3.96 6 6 C4.02 6 2.04 6 0 6 C0 4.02 0 2.04 0 0 Z " fill="#010101" transform="translate(144,18)"/>
<path d="M0 0 C1.98 0 3.96 0 6 0 C6 1.98 6 3.96 6 6 C4.02 6 2.04 6 0 6 C0 4.02 0 2.04 0 0 Z " fill="#010101" transform="translate(132,18)"/>
<path d="M0 0 C1.98 0 3.96 0 6 0 C6 1.98 6 3.96 6 6 C4.02 6 2.04 6 0 6 C0 4.02 0 2.04 0 0 Z " fill="#010101" transform="translate(96,18)"/>
<path d="M0 0 C1.98 0 3.96 0 6 0 C6 1.98 6 3.96 6 6 C4.02 6 2.04 6 0 6 C0 4.02 0 2.04 0 0 Z " fill="#010101" transform="translate(84,18)"/>
<path d="M0 0 C1.98 0 3.96 0 6 0 C6 1.98 6 3.96 6 6 C4.02 6 2.04 6 0 6 C0 4.02 0 2.04 0 0 Z " fill="#010101" transform="translate(72,18)"/>
<path d="M0 0 C0.46192125 4.92715996 -1.1724717 8.50732625 -3 13 C-5.13586678 9.79619983 -5.23132175 8.98060033 -5.125 5.3125 C-5.10695312 4.50425781 -5.08890625 3.69601563 -5.0703125 2.86328125 C-5.04710937 2.24839844 -5.02390625 1.63351563 -5 1 C-4.67 1.66 -4.34 2.32 -4 3 C-3.525625 2.505 -3.05125 2.01 -2.5625 1.5 C-1 0 -1 0 0 0 Z " fill="#696969" transform="translate(148,112)"/>
<path d="M0 0 C0.66 0.66 1.32 1.32 2 2 C1.34 3.65 0.68 5.3 0 7 C1.32 7.33 2.64 7.66 4 8 C4.33 9.65 4.66 11.3 5 13 C3.35 13 1.7 13 0 13 C-0.33 12.01 -0.66 11.02 -1 10 C-1.66 9.67 -2.32 9.34 -3 9 C-2.01 6.03 -1.02 3.06 0 0 Z " fill="#686D67" transform="translate(126,118)"/>
<path d="M0 0 C1.98 0 3.96 0 6 0 C6.33 0.66 6.66 1.32 7 2 C5.02 2.99 5.02 2.99 3 4 C3 4.66 3 5.32 3 6 C1.35 5.67 -0.3 5.34 -2 5 C-1.34 3.35 -0.68 1.7 0 0 Z " fill="#7C7E7C" transform="translate(127,120)"/>
<path d="M0 0 C3.3 0 6.6 0 10 0 C8.515 2.475 8.515 2.475 7 5 C6.01 4.34 5.02 3.68 4 3 C0.2236068 2.7018576 0.2236068 2.7018576 -2 4 C-1.34 2.68 -0.68 1.36 0 0 Z " fill="#202020" transform="translate(105,103)"/>
<path d="M0 0 C5.94 0 11.88 0 18 0 C18 0.99 18 1.98 18 3 C14.25 4.125 14.25 4.125 12 3 C12 2.34 12 1.68 12 1 C8.04 1 4.08 1 0 1 C0 0.67 0 0.34 0 0 Z " fill="#ACADAB" transform="translate(126,158)"/>
<path d="M0 0 C0.66 0.66 1.32 1.32 2 2 C2.66 2.33 3.32 2.66 4 3 C3.34 4.98 2.68 6.96 2 9 C1.34 9 0.68 9 0 9 C-1.76462683 5.91190305 -2 4.76687864 -2 1 C-1.34 0.67 -0.68 0.34 0 0 Z " fill="#444B44" transform="translate(123,125)"/>
<path d="M0 0 C1.98 0.66 3.96 1.32 6 2 C6 3.32 6 4.64 6 6 C4.02 6 2.04 6 0 6 C0 4.02 0 2.04 0 0 Z " fill="#0B0B0B" transform="translate(102,156)"/>
<path d="M0 0 C2.475 0.99 2.475 0.99 5 2 C4.67 3.98 4.34 5.96 4 8 C3.34 8 2.68 8 2 8 C2 7.01 2 6.02 2 5 C0.68 4.67 -0.64 4.34 -2 4 C-1.34 4 -0.68 4 0 4 C0 2.68 0 1.36 0 0 Z " fill="#242B23" transform="translate(113,123)"/>
<path d="M0 0 C2.31 0 4.62 0 7 0 C6.67 0.99 6.34 1.98 6 3 C3.93359375 3.94921875 3.93359375 3.94921875 1.4375 4.6875 C0.61121094 4.93886719 -0.21507812 5.19023438 -1.06640625 5.44921875 C-1.70449219 5.63097656 -2.34257813 5.81273438 -3 6 C-2 4 -1 2 0 0 Z " fill="#383838" transform="translate(129,103)"/>
<path d="M0 0 C2.64 0 5.28 0 8 0 C7.34 0.66 6.68 1.32 6 2 C6.33 2.66 6.66 3.32 7 4 C4.69 4 2.38 4 0 4 C0 2.68 0 1.36 0 0 Z " fill="#212121" transform="translate(144,158)"/>
<path d="M0 0 C0.66 0.33 1.32 0.66 2 1 C2 1.66 2 2.32 2 3 C2.99 3 3.98 3 5 3 C5 4.65 5 6.3 5 8 C4.01 8 3.02 8 2 8 C1.67 6.68 1.34 5.36 1 4 C0.34 4 -0.32 4 -1 4 C-0.67 2.68 -0.34 1.36 0 0 Z " fill="#535752" transform="translate(141,132)"/>
<path d="M0 0 C0.99 0.33 1.98 0.66 3 1 C2.67 2.65 2.34 4.3 2 6 C0.68 5.67 -0.64 5.34 -2 5 C-2 3.68 -2 2.36 -2 1 C-1.34 0.67 -0.68 0.34 0 0 Z " fill="#0F130F" transform="translate(128,130)"/>
<path d="M0 0 C0.99 0 1.98 0 3 0 C6 4.22222222 6 4.22222222 6 7 C4.125 6.875 4.125 6.875 2 6 C0.75 2.9375 0.75 2.9375 0 0 Z " fill="#353934" transform="translate(110,135)"/>
<path d="M0 0 C2 1 2 1 4 3 C3.625 5.625 3.625 5.625 3 8 C2.34 7.67 1.68 7.34 1 7 C0.375 4.4375 0.375 4.4375 0 2 C-0.99 1.67 -1.98 1.34 -3 1 C-2.01 0.67 -1.02 0.34 0 0 Z " fill="#323732" transform="translate(131,127)"/>
<path d="M0 0 C2.97 0.33 5.94 0.66 9 1 C6.4345406 3.5654594 4.52313332 3.54046087 1 4 C0.67 2.68 0.34 1.36 0 0 Z " fill="#3D3C3D" transform="translate(124,135)"/>
<path d="M0 0 C2.6875 0.3125 2.6875 0.3125 5 1 C4.67 1.66 4.34 2.32 4 3 C2.66923011 3.34342449 1.33568021 3.67619874 0 4 C-0.66 4.66 -1.32 5.32 -2 6 C-2.33 5.01 -2.66 4.02 -3 3 C-1.8125 1.4375 -1.8125 1.4375 0 0 Z " fill="#5D655D" transform="translate(135,125)"/>
<path d="M0 0 C1.65 0 3.3 0 5 0 C4.01 0.495 4.01 0.495 3 1 C1.86649466 3.01669827 1.86649466 3.01669827 1 5 C0.34 5 -0.32 5 -1 5 C-0.67 3.35 -0.34 1.7 0 0 Z " fill="#525252" transform="translate(115,103)"/>
<path d="M0 0 C2 1 2 1 3 3 C2.67 3.66 2.34 4.32 2 5 C0.35 5 -1.3 5 -3 5 C-2.01 3.35 -1.02 1.7 0 0 Z " fill="#131A13" transform="translate(120,116)"/>
</svg>
